<?xml version="1.0" encoding="UTF-8"?>
<svg id="Wordmark_-_Color" data-name="Wordmark - Color" xmlns="http://www.w3.org/2000/svg" xmlns:xlink="http://www.w3.org/1999/xlink" viewBox="0 0 1152 576">
  <defs>
    <style>
      .cls-1 {
        fill: #fff;
      }

      .cls-2 {
        fill: url(#Dégradé_sans_nom_18);
      }
    </style>
    <linearGradient id="Dégradé_sans_nom_18" data-name="Dégradé sans nom 18" x1="70.59" y1="288.97" x2="1089.82" y2="288.97" gradientUnits="userSpaceOnUse">
      <stop offset=".26" stop-color="#b72532"/>
      <stop offset="1" stop-color="#e62c3f"/>
    </linearGradient>
  </defs>
  <path id="Stroke" class="cls-1" d="M1087.08,181.09h-15.69c-6.31,0-11.93,2.51-15.97,6.61-.04.04-.09.09-.13.13-.04.04-.09.09-.13.13-.04.04-.09.09-.13.13-.04.04-.09.09-.13.13-.04.04-.09.09-.13.13-.04.04-.09.09-.13.13-.04.04-.09.09-.13.13-.04.04-.09.09-.13.13-.04.04-.09.09-.13.13-.04.04-.09.09-.13.13-.04.04-.09.09-.13.13-.04.04-.09.09-.13.13-.04.04-.09.09-.13.13-.04.04-.09.09-.13.13-.04.04-.09.09-.13.13-.04.04-.09.09-.13.13-.04.04-.09.09-.13.13-.04.04-.09.09-.13.13-.04.04-.09.09-.13.13-.04.04-.09.09-.13.13-.04.04-.09.09-.13.13-.04.04-.09.09-.13.13-.04.04-.09.09-.13.13-.04.04-.09.09-.13.13-.04.04-.09.09-.13.13-.04.04-.09.09-.13.13-.04.04-.09.09-.13.13-.04.04-.09.09-.13.13-.04.04-.09.09-.13.13-.04.04-.09.09-.13.13-.04.04-.09.09-.13.13-.04.04-.09.09-.13.13-.04.04-.09.09-.13.13-.04.04-.09.09-.13.13-.04.04-.09.09-.13.13-.04.04-.09.09-.13.13-.04.04-.09.09-.13.13-.04.04-.09.09-.13.13-.04.04-.09.09-.13.13-.04.04-.09.09-.13.13-.04.04-.09.09-.13.13-.04.04-.09.09-.13.13-.04.04-.09.09-.13.13-.04.04-.09.09-.13.13-.04.04-.09.09-.13.13-.04.04-.09.09-.13.13-.04.04-.09.09-.13.13-.04.04-.09.09-.13.13-.04.04-.09.09-.13.13-.04.04-.09.09-.13.13-.04.04-.09.09-.13.13-.04.04-.09.09-.13.13-.04.04-.09.09-.13.13-.04.04-.09.09-.13.13-.04.04-.09.09-.13.13-.04.04-.09.09-.13.13-.04.04-.09.09-.13.13-.04.04-.09.09-.13.13-.04.04-.09.09-.13.13-.04.04-.09.09-.13.13-.04.04-.09.09-.13.13-.04.04-.09.09-.13.13-.04.04-.09.09-.13.13-.04.04-.09.09-.13.13-.04.04-.09.09-.13.13-.04.04-.09.09-.13.13-.04.04-.09.09-.13.13-.04.04-.09.09-.13.13-.04.04-.09.09-.13.13-.04.04-.09.09-.13.13-.04.04-.09.09-.13.13-.04.04-.09.09-.13.13-.04.04-.09.09-.13.13-.04.04-.09.09-.13.13-.04.04-.09.09-.13.13-.04.04-.09.09-.13.13-.04.04-.09.09-.13.13-.04.04-.09.09-.13.13-.04.04-.09.09-.13.13-.04.04-.09.09-.13.13-.04.04-.09.09-.13.13-.04.04-.09.09-.13.13-.04.04-.09.09-.13.13-.04.04-.09.09-.13.13-.04.04-.09.09-.13.13-.04.04-.09.09-.13.13-.04.04-.09.09-.13.13-.04.04-.09.09-.13.13-.04.04-.09.09-.13.13-.04.04-.09.09-.13.13-.04.04-.09.09-.13.13-.04.04-.09.09-.13.13-.04.04-.09.09-.13.13-.04.04-.09.09-.13.13-.04.04-.09.09-.13.13-.04.04-.09.09-.13.13-.04.04-.09.09-.13.13-.04.04-.09.09-.13.13-.04.04-.09.09-.13.13-.04.04-.09.09-.13.13-4.07,4.07-6.56,9.75-6.56,16.12v8.41h-10.57c-4.11,0-7.93,1.06-11.2,2.93-7.71-3.48-16.41-5.29-25.85-5.29-16.68,0-31.54,5.94-42.91,16.04-2.89-6.89-9.04-11.95-16.64-13.32v-3.26c0-12.67-9.84-22.6-22.4-22.6h-15.88c-6.13,0-11.6,2.38-15.61,6.27-2.79-14.71-15.74-25.88-31.25-25.88-8.86,0-16.89,3.6-22.69,9.4-.04.04-.09.09-.13.13-.04.04-.09.09-.13.13-.04.04-.09.09-.13.13-.04.04-.09.09-.13.13-.04.04-.09.09-.13.13-.04.04-.09.09-.13.13-.04.04-.09.09-.13.13-.04.04-.09.09-.13.13-.04.04-.09.09-.13.13-.04.04-.09.09-.13.13-.04.04-.09.09-.13.13-.04.04-.09.09-.13.13-.04.04-.09.09-.13.13-.04.04-.09.09-.13.13-.04.04-.09.09-.13.13-.04.04-.09.09-.13.13-.04.04-.09.09-.13.13-.04.04-.09.09-.13.13-.04.04-.09.09-.13.13-.04.04-.09.09-.13.13-.04.04-.09.09-.13.13-.04.04-.09.09-.13.13-.04.04-.09.09-.13.13-.04.04-.09.09-.13.13-.04.04-.09.09-.13.13-.04.04-.09.09-.13.13-.04.04-.09.09-.13.13-.04.04-.09.09-.13.13-.04.04-.09.09-.13.13-.04.04-.09.09-.13.13-.04.04-.09.09-.13.13-.04.04-.09.09-.13.13-.04.04-.09.09-.13.13-.04.04-.09.09-.13.13-.04.04-.09.09-.13.13-.04.04-.09.09-.13.13-.04.04-.09.09-.13.13-.04.04-.09.09-.13.13-.04.04-.09.09-.13.13-.04.04-.09.09-.13.13-.04.04-.09.09-.13.13-.04.04-.09.09-.13.13-.04.04-.09.09-.13.13-.04.04-.09.09-.13.13-.04.04-.09.09-.13.13-.04.04-.09.09-.13.13-.04.04-.09.09-.13.13-.04.04-.09.09-.13.13-.04.04-.09.09-.13.13-.04.04-.09.09-.13.13-.04.04-.09.09-.13.13-.04.04-.09.09-.13.13-.04.04-.09.09-.13.13-.04.04-.09.09-.13.13-.04.04-.09.09-.13.13-.04.04-.09.09-.13.13-.04.04-.09.09-.13.13-.04.04-.09.09-.13.13-.04.04-.09.09-.13.13-.04.04-.09.09-.13.13-.04.04-.09.09-.13.13-.04.04-.09.09-.13.13-.04.04-.09.09-.13.13-.04.04-.09.09-.13.13-.04.04-.09.09-.13.13-.04.04-.09.09-.13.13-.04.04-.09.09-.13.13-.04.04-.09.09-.13.13-.04.04-.09.09-.13.13-.04.04-.09.09-.13.13-.04.04-.09.09-.13.13-.04.04-.09.09-.13.13-.04.04-.09.09-.13.13-.04.04-.09.09-.13.13-.04.04-.09.09-.13.13-.04.04-.09.09-.13.13-.04.04-.09.09-.13.13-.04.04-.09.09-.13.13-.04.04-.09.09-.13.13-.04.04-.09.09-.13.13-.04.04-.09.09-.13.13-.04.04-.09.09-.13.13-.04.04-.09.09-.13.13-.04.04-.09.09-.13.13-.04.04-.09.09-.13.13-.04.04-.09.09-.13.13-.04.04-.09.09-.13.13-.04.04-.09.09-.13.13-.04.04-.09.09-.13.13-.04.04-.09.09-.13.13-.04.04-.09.09-.13.13-.04.04-.09.09-.13.13-.04.04-.09.09-.13.13-.04.04-.09.09-.13.13-.04.04-.09.09-.13.13-.04.04-.09.09-.13.13-.04.04-.09.09-.13.13-.04.04-.09.09-.13.13-.04.04-.09.09-.13.13-.04.04-.09.09-.13.13-5.83,5.76-9.44,13.74-9.44,22.54,0,2.52.31,4.99.87,7.39-9.85-6.1-21.48-9.56-34.18-9.56-9.44,0-18.14,1.81-25.85,5.29-3.28-1.87-7.09-2.93-11.2-2.93h-14.31c-6.27,0-11.85,2.47-15.88,6.52-4.03-4.05-9.61-6.52-15.88-6.52h-14.31c-4.11,0-7.93,1.06-11.2,2.93-7.71-3.48-16.41-5.29-25.85-5.29-18.29,0-34.39,7.13-46.1,19.06-.04.04-.09.09-.13.13-.04.04-.09.09-.13.13-.04.04-.09.09-.13.13-.04.04-.09.09-.13.13-.04.04-.09.09-.13.13-.04.04-.09.09-.13.13-.04.04-.09.09-.13.13-.04.04-.09.09-.13.13-.04.04-.09.09-.13.13-.04.04-.09.09-.13.13-.04.04-.09.09-.13.13-.04.04-.09.09-.13.13-.04.04-.09.09-.13.13-.04.04-.09.09-.13.13-.04.04-.09.09-.13.13-.04.04-.09.09-.13.13-.04.04-.09.09-.13.13-.04.04-.09.09-.13.13-.04.04-.09.09-.13.13-.04.04-.09.09-.13.13-.04.04-.09.09-.13.13-.04.04-.09.09-.13.13-.04.04-.09.09-.13.13-.04.04-.09.09-.13.13-.04.04-.09.09-.13.13-.04.04-.09.09-.13.13-.04.04-.09.09-.13.13-.04.04-.09.09-.13.13-.04.04-.09.09-.13.13-.04.04-.09.09-.13.13-.04.04-.09.09-.13.13-.04.04-.09.09-.13.13-.04.04-.09.09-.13.13-.04.04-.09.09-.13.13-.04.04-.09.09-.13.13-.04.04-.09.09-.13.13-.04.04-.09.09-.13.13-.04.04-.09.09-.13.13-.04.04-.09.09-.13.13-.04.04-.09.09-.13.13-.04.04-.09.09-.13.13-.04.04-.09.09-.13.13-.04.04-.09.09-.13.13-.04.04-.09.09-.13.13-.04.04-.09.09-.13.13-.04.04-.09.09-.13.13-.04.04-.09.09-.13.13-.04.04-.09.09-.13.13-.04.04-.09.09-.13.13-.04.04-.09.09-.13.13-.04.04-.09.09-.13.13-.04.04-.09.09-.13.13-.04.04-.09.09-.13.13-.04.04-.09.09-.13.13-.04.04-.09.09-.13.13-.04.04-.09.09-.13.13-.04.04-.09.09-.13.13-.04.04-.09.09-.13.13-.04.04-.09.09-.13.13-.04.04-.09.09-.13.13-.04.04-.09.09-.13.13-.04.04-.09.09-.13.13-.04.04-.09.09-.13.13-.04.04-.09.09-.13.13-.04.04-.09.09-.13.13-.04.04-.09.09-.13.13-.04.04-.09.09-.13.13-.04.04-.09.09-.13.13-.04.04-.09.09-.13.13-.04.04-.09.09-.13.13-.04.04-.09.09-.13.13-.04.04-.09.09-.13.13-.04.04-.09.09-.13.13-.04.04-.09.09-.13.13-.04.04-.09.09-.13.13-.04.04-.09.09-.13.13-.04.04-.09.09-.13.13-.04.04-.09.09-.13.13-.04.04-.09.09-.13.13-.04.04-.09.09-.13.13-.04.04-.09.09-.13.13-.04.04-.09.09-.13.13-.04.04-.09.09-.13.13-.04.04-.09.09-.13.13-.04.04-.09.09-.13.13-.04.04-.09.09-.13.13-.04.04-.09.09-.13.13-.04.04-.09.09-.13.13-.04.04-.09.09-.13.13-.04.04-.09.09-.13.13-.04.04-.09.09-.13.13-.04.04-.09.09-.13.13-.04.04-.09.09-.13.13-.04.04-.09.09-.13.13-.04.04-.09.09-.13.13-.04.04-.09.09-.13.13-.04.04-.09.09-.13.13-.04.04-.09.09-.13.13-.04.04-.09.09-.13.13-.04.04-.09.09-.13.13-8.96,9.08-15.36,20.95-18.24,34.58-3.44.89-6.68,2.6-9.54,5.1-6.02,5.23-12.45,7.69-20.19,7.69-16.82,0-28.57-12.07-28.57-29.36,0-5.12,1.04-9.77,2.91-13.81,3.72-1.69,7.94-2.64,12.56-2.64,7.75,0,14.17,2.45,20.23,7.72l.54.47.57.43c5.28,3.96,10.48,4.79,13.92,4.79,5.53,0,10.86-2.14,14.99-5.94.05-.04.09-.09.13-.13.04-.04.08-.09.13-.13.05-.04.09-.09.13-.13.05-.04.08-.09.13-.13.05-.04.08-.09.13-.13.05-.04.08-.09.13-.13.05-.04.09-.09.13-.13.04-.04.08-.09.13-.13.05-.04.09-.09.13-.13.05-.04.08-.09.13-.13.05-.04.08-.09.13-.13.05-.04.09-.09.13-.13.04-.04.08-.09.13-.13.04-.04.08-.09.13-.13.05-.04.09-.09.13-.13.05-.04.08-.09.13-.13.05-.04.08-.09.13-.13.05-.04.09-.09.13-.13.04-.04.08-.09.13-.13.05-.04.09-.09.13-.13.05-.04.08-.09.13-.13.05-.04.08-.09.13-.13.05-.04.09-.09.13-.13.04-.04.08-.09.13-.13.04-.04.08-.09.13-.13.05-.04.09-.09.13-.13.05-.04.08-.09.13-.13.05-.04.08-.09.13-.13.05-.04.09-.09.13-.13.04-.04.08-.09.13-.13.05-.04.09-.09.13-.13.05-.04.08-.09.13-.13.05-.04.08-.09.13-.13.05-.04.08-.09.13-.13.05-.04.09-.09.13-.13.04-.04.08-.09.13-.13.05-.04.09-.09.13-.13.05-.04.08-.09.13-.13.05-.04.08-.09.13-.13.05-.04.09-.09.13-.13.04-.04.08-.09.13-.13.04-.04.08-.09.13-.13.05-.04.09-.09.13-.13.05-.04.08-.09.13-.13.05-.04.08-.09.13-.13.05-.04.09-.09.13-.13.04-.04.08-.09.13-.13.05-.04.09-.09.13-.13.05-.04.08-.09.13-.13.05-.04.08-.09.13-.13.05-.04.09-.09.13-.13.04-.04.08-.09.13-.13.04-.04.08-.09.13-.13.05-.04.09-.09.13-.13.05-.04.08-.09.13-.13.05-.04.08-.09.13-.13.05-.04.09-.09.13-.13.04-.04.08-.09.13-.13.05-.04.09-.09.13-.13.05-.04.08-.09.13-.13.05-.04.08-.09.13-.13.05-.04.08-.09.13-.13.05-.04.09-.09.13-.13.04-.04.08-.09.13-.13.05-.04.09-.09.13-.13.05-.04.08-.09.13-.13.05-.04.08-.09.13-.13.05-.04.09-.09.13-.13.04-.04.08-.09.13-.13.04-.04.08-.09.13-.13.05-.04.09-.09.13-.13.05-.04.08-.09.13-.13.05-.04.08-.09.13-.13.05-.04.09-.09.13-.13.04-.04.08-.09.13-.13.05-.04.09-.09.13-.13.05-.04.08-.09.13-.13.05-.04.08-.09.13-.13.05-.04.09-.09.13-.13.04-.04.08-.09.13-.13.04-.04.08-.09.13-.13.05-.04.09-.09.13-.13.05-.04.08-.09.13-.13.05-.04.08-.09.13-.13.05-.04.09-.09.13-.13.04-.04.08-.09.13-.13.05-.04.09-.09.13-.13.05-.04.08-.09.13-.13.05-.04.08-.09.13-.13.05-.04.08-.09.13-.13.05-.04.09-.09.13-.13.04-.04.08-.09.13-.13.05-.04.09-.09.13-.13.05-.04.08-.09.13-.13.05-.04.08-.09.13-.13.05-.04.09-.09.13-.13.04-.04.08-.09.13-.13.04-.04.08-.09.13-.13.05-.04.09-.09.13-.13.05-.04.08-.09.13-.13.59-.53,1.15-1.1,1.69-1.7l9.85-10.62.19-.21.18-.21c8.13-9.29,7.68-22.39-1.08-31.16l-.17-.17-.18-.17c-16.66-15.86-37.69-24.24-60.8-24.24-24.52,0-47.24,9.31-63.99,26.21-.02.02-.04.04-.06.06-.02.02-.05.04-.07.07-.02.02-.04.04-.06.06-.02.02-.05.04-.07.07-.02.02-.04.04-.06.06-.02.02-.05.04-.07.07-.02.02-.04.04-.06.06-.02.02-.05.04-.07.07-.02.02-.04.04-.06.06-.02.02-.05.04-.07.07-.02.02-.04.04-.06.06-.02.02-.05.04-.07.07-.02.02-.04.04-.06.06-.02.02-.05.04-.07.07-.02.02-.04.04-.06.06-.02.02-.05.04-.07.07-.02.02-.04.04-.06.06-.02.02-.05.04-.07.07-.02.02-.04.04-.06.06-.02.02-.05.04-.07.07-.02.02-.04.04-.06.06-.02.02-.05.04-.07.07-.02.02-.04.04-.06.06-.02.02-.05.04-.07.07-.02.02-.04.04-.06.06-.02.02-.05.04-.07.07-.02.02-.04.04-.06.06-.02.02-.05.04-.07.07-.02.02-.04.04-.06.06-.02.02-.05.04-.07.07-.02.02-.04.04-.06.06-.02.02-.05.04-.07.07-.02.02-.04.04-.06.06-.02.02-.05.04-.07.07-.02.02-.04.04-.06.06-.02.02-.05.04-.07.07-.02.02-.04.04-.06.06-.02.02-.05.04-.07.07-.02.02-.04.04-.06.06-.02.02-.05.04-.07.07-.02.02-.04.04-.06.06-.02.02-.05.04-.07.07-.02.02-.04.04-.06.06-.02.02-.05.04-.07.07-.02.02-.04.04-.06.06-.02.02-.05.04-.07.07-.02.02-.04.04-.06.06-.02.02-.05.04-.07.07-.02.02-.04.04-.06.06-.02.02-.05.04-.07.07-.02.02-.04.04-.06.06-.02.02-.05.04-.07.07-.02.02-.04.04-.06.06-.02.02-.05.04-.07.07-.02.02-.04.04-.06.06-.02.02-.05.04-.07.07-.02.02-.04.04-.06.06-.02.02-.05.04-.07.07-.02.02-.04.04-.06.06-.02.02-.05.04-.07.07-.02.02-.04.04-.06.06-.02.02-.05.04-.07.07-.02.02-.04.04-.06.06-.02.02-.05.04-.07.07-.02.02-.04.04-.06.06-.02.02-.05.04-.07.07-.02.02-.04.04-.06.06-.02.02-.05.04-.07.07-.02.02-.04.04-.06.06-.02.02-.05.04-.07.07-.02.02-.04.04-.06.06-.02.02-.05.04-.07.07-.02.02-.04.04-.06.06-.02.02-.05.04-.07.07-.02.02-.04.04-.06.06-.02.02-.05.04-.07.07-.02.02-.04.04-.06.06-.02.02-.05.04-.07.07-.02.02-.04.04-.06.06-.02.02-.05.04-.07.07-.02.02-.04.04-.06.06-.02.02-.05.04-.07.07-.02.02-.04.04-.06.06-.02.02-.05.04-.07.07-.02.02-.04.04-.06.06-.02.02-.05.04-.07.07-.02.02-.04.04-.06.06-.02.02-.05.04-.07.07-.02.02-.04.04-.06.06-.02.02-.05.04-.07.07-.02.02-.04.04-.06.06-.02.02-.05.04-.07.07-.02.02-.04.04-.06.06-.02.02-.05.04-.07.07-.02.02-.04.04-.06.06-.02.02-.05.04-.07.07-.02.02-.04.04-.06.06-.02.02-.05.04-.07.07-.02.02-.04.04-.06.06-.02.02-.05.04-.07.07-.02.02-.04.04-.06.06-.02.02-.05.04-.07.07-.02.02-.04.04-.06.06-.02.02-.05.04-.07.07-.02.02-.04.04-.06.06-.02.02-.05.04-.07.07-.02.02-.04.04-.06.06-.02.02-.05.04-.07.07-.02.02-.04.04-.06.06-.02.02-.05.04-.07.07-.02.02-.04.04-.06.06-.02.02-.05.04-.07.07-.02.02-.04.04-.06.06-.02.02-.05.04-.07.07-.02.02-.04.04-.06.06-.02.02-.05.04-.07.07-.02.02-.04.04-.06.06-.02.02-.05.04-.07.07-.02.02-.04.04-.06.06-.02.02-.05.04-.07.07-.02.02-.04.04-.06.06-.02.02-.05.04-.07.07-.02.02-.04.04-.06.06-.02.02-.05.04-.07.07-.02.02-.04.04-.06.06-.02.02-.05.04-.07.07-.02.02-.04.04-.06.06-.02.02-.05.04-.07.07-.02.02-.04.04-.06.06-.02.02-.05.04-.07.07-.02.02-.04.04-.06.06-.02.02-.05.04-.07.07-.02.02-.04.04-.06.06-.02.02-.05.04-.07.07-.02.02-.04.04-.06.06-.02.02-.05.04-.07.07-.02.02-.04.04-.06.06-.02.02-.05.04-.07.07-.02.02-.04.04-.06.06-.02.02-.05.04-.07.07-.02.02-.04.04-.06.06-.02.02-.05.04-.07.07-.02.02-.04.04-.06.06-.02.02-.05.04-.07.07-.02.02-.04.04-.06.06-.02.02-.05.04-.07.07-.02.02-.04.04-.06.06-.02.02-.05.04-.07.07-.02.02-.04.04-.06.06-.02.02-.05.04-.07.07-.02.02-.04.04-.06.06-.02.02-.05.04-.07.07-.02.02-.04.04-.06.06-.02.02-.05.04-.07.07-.02.02-.04.04-.06.06-.02.02-.05.04-.07.07-.02.02-.04.04-.06.06-.02.02-.05.04-.07.07-.02.02-.04.04-.06.06-.02.02-.05.04-.07.07-.02.02-.04.04-.06.06-.02.02-.05.04-.07.07-.02.02-.04.04-.06.06-.02.02-.05.04-.07.07-.02.02-.04.04-.06.06-.02.02-.05.04-.07.07-.02.02-.04.04-.06.06-.02.02-.05.04-.07.07-.02.02-.04.04-.06.06-.02.02-.05.04-.07.07-.02.02-.04.04-.06.06-.02.02-.05.04-.07.07-.02.02-.04.04-.06.06-.02.02-.05.04-.07.07-.02.02-.04.04-.06.06-.02.02-.05.04-.07.07-.02.02-.04.04-.06.06-.02.02-.05.04-.07.07-.02.02-.04.04-.06.06-.02.02-.05.04-.07.07-.02.02-.04.04-.06.06-.02.02-.05.04-.07.07-.02.02-.04.04-.06.06-.02.02-.05.04-.07.07-.02.02-.04.04-.06.06-.02.02-.05.04-.07.07-.02.02-.04.04-.06.06-.02.02-.05.04-.07.07-.02.02-.04.04-.06.06-.02.02-.05.04-.07.07-.02.02-.04.04-.06.06-.02.02-.05.04-.07.07-.02.02-.04.04-.06.06-.02.02-.05.04-.07.07-.02.02-.04.04-.06.06-.02.02-.05.04-.07.07-.02.02-.04.04-.06.06-.02.02-.05.04-.07.07-.02.02-.04.04-.06.06-.02.02-.05.04-.07.07-.02.02-.04.04-.06.06-.02.02-.05.04-.07.07-6.44,6.5-11.77,13.9-15.87,21.94-.14-.14-.26-.29-.39-.43-12.9-13.18-30.48-20.44-49.51-20.44s-36.74,7.25-49.66,20.42c-.01.01-.03.03-.04.04-.03.03-.06.06-.09.09-.01.01-.03.03-.04.04-.03.03-.06.06-.09.09-.01.01-.03.03-.04.04-.03.03-.06.06-.09.09-.01.01-.03.03-.04.04-.03.03-.06.06-.09.09-.01.01-.03.03-.04.05-.03.03-.06.06-.09.08-.01.01-.03.03-.04.04-.03.03-.06.06-.09.09-.01.01-.03.03-.04.04-.03.03-.06.06-.09.09-.01.01-.03.03-.04.04-.03.03-.06.06-.09.09-.01.01-.03.03-.04.04-.03.03-.06.06-.09.09-.01.01-.03.03-.04.05-.03.03-.06.06-.09.08-.01.01-.03.03-.04.04-.03.03-.06.06-.09.09-.01.01-.03.03-.04.04-.03.03-.06.06-.09.09-.01.01-.03.03-.04.04-.03.03-.06.06-.09.09-.01.01-.03.03-.04.04-.03.03-.06.06-.09.09-.01.01-.03.03-.04.04-.03.03-.06.06-.09.09-.01.01-.03.03-.04.05-.03.03-.06.06-.09.08-.01.01-.03.03-.04.04-.03.03-.06.06-.09.09-.01.01-.03.03-.04.04-.03.03-.06.06-.09.09-.01.01-.03.03-.04.04-.03.03-.06.06-.09.09-.01.01-.03.03-.04.04-.03.03-.06.06-.09.09-.01.01-.03.03-.04.04-.03.03-.06.06-.09.09-.01.01-.03.03-.04.05-.03.03-.06.06-.09.08-.01.01-.03.03-.04.04-.03.03-.06.06-.09.09-.01.01-.03.03-.04.04-.03.03-.06.06-.09.09-.01.01-.03.03-.04.04-.03.03-.06.06-.09.09-.01.01-.03.03-.04.04-.03.03-.06.06-.09.09-.01.01-.03.03-.04.05-.03.03-.06.06-.09.08-.01.01-.03.03-.04.04-.03.03-.06.06-.09.09-.01.01-.03.03-.04.04-.03.03-.06.06-.09.09-.01.01-.03.03-.04.04-.03.03-.06.06-.09.09-.01.01-.03.03-.04.04-.03.03-.06.06-.09.09-.01.01-.03.03-.04.04-.03.03-.06.06-.09.09-.01.01-.03.03-.04.05-.03.03-.06.06-.09.08-.01.01-.03.03-.04.04-.03.03-.06.06-.09.09-.01.01-.03.03-.04.04-.03.03-.06.06-.09.09-.01.01-.03.03-.04.04-.03.03-.06.06-.09.09-.01.01-.03.03-.04.04-.03.03-.06.06-.09.09-.01.01-.03.03-.04.05-.03.03-.06.06-.09.08-.01.01-.03.03-.04.04-.03.03-.06.06-.09.09-.01.01-.03.03-.04.04-.03.03-.06.06-.09.09-.01.01-.03.03-.04.04-.03.03-.06.06-.09.09-.01.01-.03.03-.04.04-.03.03-.06.06-.09.09-.01.01-.03.03-.04.04-.03.03-.06.06-.09.09-.01.01-.03.03-.04.05-.03.03-.06.06-.09.08-.01.01-.03.03-.04.04-.03.03-.06.06-.09.09-.01.01-.03.03-.04.04-.03.03-.06.06-.09.09-.01.01-.03.03-.04.04-.03.03-.06.06-.09.09-.01.01-.03.03-.04.04-.03.03-.06.06-.09.09-.01.01-.03.03-.04.04-.03.03-.06.06-.09.09-.01.01-.03.03-.04.05-.03.03-.06.06-.09.08-.01.01-.03.03-.04.04-.03.03-.06.06-.09.09-.01.01-.03.03-.04.04-.03.03-.06.06-.09.09-.01.01-.03.03-.04.04-.03.03-.06.06-.09.09-.01.01-.03.03-.04.04-.03.03-.06.06-.09.09-.01.01-.03.03-.04.05-.03.03-.06.06-.09.08-.01.01-.03.03-.04.04-.03.03-.06.06-.09.09-.01.01-.03.03-.04.04-.03.03-.06.06-.09.09-.01.01-.03.03-.04.04-.03.03-.06.06-.09.09-.01.01-.03.03-.04.04-.03.03-.06.06-.09.09-.01.01-.03.03-.04.04-.03.03-.06.06-.09.09-.01.01-.03.03-.04.05,0,0,0,0,0,0-1.87-2.84-3.94-5.54-6.25-8.05-12.01-13.03-29.06-20.21-48-20.21s-36.98,7.28-49.59,20.5c0,0,0,0,0,0-.04.04-.08.08-.12.12,0,0,0,0,0,0-.04.04-.08.08-.12.12,0,0,0,0,0,0-.04.04-.08.08-.13.12,0,0,0,0,0,0-.04.04-.08.08-.12.12,0,0,0,0,0,0-.04.04-.08.08-.12.12,0,0,0,0,0,0-.04.04-.08.08-.12.12,0,0,0,0,0,0-.04.04-.08.08-.12.12,0,0,0,0,0,0-.04.04-.08.08-.12.12,0,0,0,0,0,0-.04.04-.08.08-.13.12,0,0,0,0,0,0-.04.04-.08.08-.12.12,0,0,0,0,0,0-.04.04-.08.08-.12.12,0,0,0,0,0,0-.04.04-.08.08-.12.12,0,0,0,0,0,0-.04.04-.08.08-.12.12,0,0,0,0,0,0-.04.04-.08.08-.12.12,0,0,0,0,0,0-.04.04-.08.08-.13.12,0,0,0,0,0,0-.04.04-.08.08-.12.12,0,0,0,0,0,0-.04.04-.08.08-.12.12,0,0,0,0,0,0-.04.04-.08.08-.12.12,0,0,0,0,0,0-.04.04-.08.08-.12.12,0,0,0,0,0,0-.04.04-.08.08-.13.12,0,0,0,0,0,0-.04.04-.08.08-.12.12,0,0,0,0,0,0-.04.04-.08.08-.12.12,0,0,0,0,0,0-.04.04-.08.08-.12.12,0,0,0,0,0,0-.04.04-.08.08-.12.12,0,0,0,0,0,0-.04.04-.08.08-.12.12,0,0,0,0,0,0-.04.04-.08.08-.13.12,0,0,0,0,0,0-.04.04-.08.08-.12.12,0,0,0,0,0,0-.04.04-.08.08-.12.12,0,0,0,0,0,0-.04.04-.08.08-.12.12,0,0,0,0,0,0-.04.04-.08.08-.12.12,0,0,0,0,0,0-.04.04-.08.08-.13.12,0,0,0,0,0,0-.04.04-.08.08-.12.12,0,0,0,0,0,0-.04.04-.08.08-.12.12,0,0,0,0,0,0-.04.04-.08.08-.12.12,0,0,0,0,0,0-.04.04-.08.08-.12.12,0,0,0,0,0,0-.04.04-.08.08-.12.12,0,0,0,0,0,0-.04.04-.08.08-.13.12,0,0,0,0,0,0-.04.04-.08.08-.12.12,0,0,0,0,0,0-.04.04-.08.08-.12.12,0,0,0,0,0,0-.04.04-.08.08-.12.12,0,0,0,0,0,0-.04.04-.08.08-.12.12,0,0,0,0,0,0-.04.04-.08.08-.12.12,0,0,0,0,0,0-.04.04-.08.08-.13.12,0,0,0,0,0,0-.04.04-.08.08-.12.12,0,0,0,0,0,0-.04.04-.08.08-.12.12,0,0,0,0,0,0-.04.04-.08.08-.12.12,0,0,0,0,0,0-.04.04-.08.08-.12.12,0,0,0,0,0,0,0,0-.02.02-.03.03-3.36-1.96-7.28-3.1-11.53-3.1h-5.93l7.01-7.56.19-.21.19-.21c8.36-9.55,7.7-22.94-1.42-31.48-16.16-16-37.12-24.45-60.63-24.45s-47.27,9.3-64.06,26.19c-.02.02-.04.04-.06.06-.02.02-.05.05-.07.07-.02.02-.04.04-.06.06-.02.02-.05.05-.07.07-.02.02-.04.04-.06.06-.02.02-.05.05-.07.07-.02.02-.04.04-.06.06-.02.02-.05.05-.07.07-.02.02-.04.04-.06.06-.02.02-.05.05-.07.07-.02.02-.04.04-.06.06-.02.02-.05.05-.07.07-.02.02-.04.04-.06.06-.02.02-.05.05-.07.07-.02.02-.04.04-.06.06-.02.02-.05.05-.07.07-.02.02-.04.04-.06.06-.02.02-.05.05-.07.07-.02.02-.04.04-.06.06-.02.02-.05.05-.07.07-.02.02-.04.04-.06.06-.02.02-.05.05-.07.07-.02.02-.04.04-.06.06-.02.02-.05.05-.07.07-.02.02-.04.04-.06.06-.02.02-.05.05-.07.07-.02.02-.04.04-.06.06-.02.02-.05.05-.07.07-.02.02-.04.04-.06.06-.02.02-.05.05-.07.07-.02.02-.04.04-.06.06-.02.02-.05.05-.07.07-.02.02-.04.04-.06.06-.02.02-.05.05-.07.07-.02.02-.04.04-.06.06-.02.02-.05.05-.07.07-.02.02-.04.04-.06.06-.02.02-.05.05-.07.07-.02.02-.04.04-.06.06-.02.02-.05.05-.07.07-.02.02-.04.04-.06.06-.02.02-.05.05-.07.07-.02.02-.04.04-.06.06-.02.02-.05.05-.07.07-.02.02-.04.04-.06.06-.02.02-.05.05-.07.07-.02.02-.04.04-.06.06-.02.02-.05.05-.07.07-.02.02-.04.04-.06.06-.02.02-.05.05-.07.07-.02.02-.04.04-.06.06-.02.02-.05.05-.07.07-.02.02-.04.04-.06.06-.02.02-.05.05-.07.07-.02.02-.04.04-.06.06-.02.02-.05.05-.07.07-.02.02-.04.04-.06.06-.02.02-.05.05-.07.07-.02.02-.04.04-.06.06-.02.02-.05.05-.07.07-.02.02-.04.04-.06.06-.02.02-.05.05-.07.07-.02.02-.04.04-.06.06-.02.02-.05.05-.07.07-.02.02-.04.04-.06.06-.02.02-.05.05-.07.07-.02.02-.04.04-.06.06-.02.02-.05.05-.07.07-.02.02-.04.04-.06.06-.02.02-.05.05-.07.07-.02.02-.04.04-.06.06-.02.02-.05.05-.07.07-.02.02-.04.04-.06.06-.02.02-.05.05-.07.07-.02.02-.04.04-.06.06-.02.02-.05.05-.07.07-.02.02-.04.04-.06.06-.02.02-.05.05-.07.07-.02.02-.04.04-.06.06-.02.02-.05.05-.07.07-.02.02-.04.04-.06.06-.02.02-.05.05-.07.07-.02.02-.04.04-.06.06-.02.02-.05.05-.07.07-.02.02-.04.04-.06.06-.02.02-.05.05-.07.07-.02.02-.04.04-.06.06-.02.02-.05.05-.07.07-.02.02-.04.04-.06.06-.02.02-.05.05-.07.07-.02.02-.04.04-.06.06-.02.02-.05.05-.07.07-.02.02-.04.04-.06.06-.02.02-.05.05-.07.07-.02.02-.04.04-.06.06-.02.02-.05.05-.07.07-.02.02-.04.04-.06.06-.02.02-.05.05-.07.07-.02.02-.04.04-.06.06-.02.02-.05.05-.07.07-.02.02-.04.04-.06.06-.02.02-.05.05-.07.07-.02.02-.04.04-.06.06-.02.02-.05.05-.07.07-.02.02-.04.04-.06.06-.02.02-.05.05-.07.07-.02.02-.04.04-.06.06-.02.02-.05.05-.07.07-.02.02-.04.04-.06.06-.02.02-.05.05-.07.07-.02.02-.04.04-.06.06-.02.02-.05.05-.07.07-.02.02-.04.04-.06.06-.02.02-.05.05-.07.07-.02.02-.04.04-.06.06-.02.02-.05.05-.07.07-.02.02-.04.04-.06.06-.02.02-.05.05-.07.07-.02.02-.04.04-.06.06-.02.02-.05.05-.07.07-.02.02-.04.04-.06.06-.02.02-.05.05-.07.07-.02.02-.04.04-.06.06-.02.02-.05.05-.07.07-.02.02-.04.04-.06.06-.02.02-.05.05-.07.07-.02.02-.04.04-.06.06-.02.02-.05.05-.07.07-.02.02-.04.04-.06.06-.02.02-.05.05-.07.07-.02.02-.04.04-.06.06-.02.02-.05.05-.07.07-.02.02-.04.04-.06.06-.02.02-.05.05-.07.07-.02.02-.04.04-.06.06-.02.02-.05.05-.07.07-.02.02-.04.04-.06.06-.02.02-.05.05-.07.07-.02.02-.04.04-.06.06-.02.02-.05.05-.07.07-.02.02-.04.04-.06.06-.02.02-.05.05-.07.07-.02.02-.04.04-.06.06-.02.02-.05.05-.07.07-.02.02-.04.04-.06.06-.02.02-.05.05-.07.07-.02.02-.04.04-.06.06-.02.02-.05.05-.07.07-.02.02-.04.04-.06.06-.02.02-.05.05-.07.07-.02.02-.04.04-.06.06-.02.02-.05.05-.07.07-.02.02-.04.04-.06.06-.02.02-.05.05-.07.07-.02.02-.04.04-.06.06-.02.02-.05.05-.07.07-.02.02-.04.04-.06.06-.02.02-.05.05-.07.07-.02.02-.04.04-.06.06-.02.02-.05.05-.07.07-.02.02-.04.04-.06.06-.02.02-.05.05-.07.07-.02.02-.04.04-.06.06-.02.02-.05.05-.07.07-.02.02-.04.04-.06.06-.02.02-.05.05-.07.07-.02.02-.04.04-.06.06-.02.02-.05.05-.07.07-.02.02-.04.04-.06.06-.02.02-.05.05-.07.07-.02.02-.04.04-.06.06-.02.02-.05.05-.07.07-.02.02-.04.04-.06.06-.02.02-.05.05-.07.07-.02.02-.04.04-.06.06-.02.02-.05.05-.07.07-.02.02-.04.04-.06.06-.02.02-.05.05-.07.07-.02.02-.04.04-.06.06-.02.02-.05.05-.07.07-.02.02-.04.04-.06.06-.02.02-.05.05-.07.07-.02.02-.04.04-.06.06-.02.02-.05.05-.07.07-.02.02-.04.04-.06.06-.02.02-.05.05-.07.07-.02.02-.04.04-.06.06-.02.02-.05.05-.07.07-.02.02-.04.04-.06.06-.02.02-.05.05-.07.07-.02.02-.04.04-.06.06-.02.02-.05.05-.07.07-.02.02-.04.04-.06.06-.02.02-.05.05-.07.07-.02.02-.04.04-.06.06-.02.02-.05.05-.07.07-.02.02-.04.04-.06.06-.02.02-.05.05-.07.07-.02.02-.04.04-.06.06-.02.02-.05.05-.07.07-.02.02-.04.04-.06.06-.02.02-.05.05-.07.07-16.76,16.85-25.98,39.67-25.98,64.25s9.26,47.41,26.09,64.2c16.82,16.79,39.67,26.04,64.35,26.04,22.6,0,42.98-7.88,57.86-22.27.04-.04.09-.09.13-.13.04-.04.08-.09.13-.13.04-.04.09-.09.13-.13.04-.04.09-.09.13-.13.04-.04.09-.09.13-.13.04-.04.09-.09.13-.13.04-.04.09-.09.13-.13.04-.04.08-.09.13-.13.04-.04.09-.09.13-.13.04-.04.09-.09.13-.13.04-.04.09-.09.13-.13.04-.04.09-.09.13-.13.04-.04.09-.09.13-.13.04-.04.09-.09.13-.13.04-.04.09-.09.13-.13.04-.04.09-.09.13-.13.04-.04.09-.09.13-.13.04-.04.09-.09.13-.13.04-.04.08-.09.13-.13.04-.04.09-.09.13-.13.04-.04.09-.09.13-.13.04-.04.09-.09.13-.13.04-.04.09-.09.13-.13.04-.04.09-.09.13-.13.04-.04.09-.09.13-.13.04-.04.09-.09.13-.13.04-.04.09-.09.13-.13.04-.04.09-.09.13-.13.04-.04.09-.09.13-.13.04-.04.08-.09.13-.13.04-.04.09-.09.13-.13.04-.04.09-.09.13-.13.04-.04.09-.09.13-.13.04-.04.09-.09.13-.13.04-.04.09-.09.13-.13.04-.04.08-.09.13-.13.04-.04.09-.09.13-.13.04-.04.09-.09.13-.13.04-.04.09-.09.13-.13.04-.04.09-.09.13-.13.04-.04.09-.09.13-.13.04-.04.09-.09.13-.13.04-.04.09-.09.13-.13.04-.04.09-.09.13-.13.04-.04.09-.09.13-.13.04-.04.09-.09.13-.13.04-.04.08-.09.13-.13.04-.04.09-.09.13-.13.04-.04.09-.09.13-.13.04-.04.09-.09.13-.13.04-.04.09-.09.13-.13.04-.04.09-.09.13-.13.04-.04.09-.09.13-.13.04-.04.09-.09.13-.13.04-.04.09-.09.13-.13.04-.04.09-.09.13-.13.04-.04.09-.09.13-.13.04-.04.08-.09.13-.13.04-.04.09-.09.13-.13.04-.04.09-.09.13-.13.04-.04.09-.09.13-.13.04-.04.09-.09.13-.13.04-.04.09-.09.13-.13.04-.04.08-.09.13-.13.04-.04.09-.09.13-.13.04-.04.09-.09.13-.13.04-.04.09-.09.13-.13.04-.04.09-.09.13-.13.04-.04.09-.09.13-.13.04-.04.09-.09.13-.13.04-.04.09-.09.13-.13.04-.04.09-.09.13-.13.04-.04.09-.09.13-.13.04-.04.09-.09.13-.13.04-.04.08-.09.13-.13.04-.04.09-.09.13-.13.04-.04.09-.09.13-.13.04-.04.09-.09.13-.13.04-.04.09-.09.13-.13.04-.04.09-.09.13-.13.04-.04.09-.09.13-.13.04-.04.09-.09.13-.13.04-.04.09-.09.13-.13.04-.04.09-.09.13-.13.04-.04.09-.09.13-.13.03-.03.06-.06.09-.09,2.74,4.6,5.99,8.87,9.78,12.7,13.07,13.21,31.4,20.49,51.62,20.49s36.33-6.3,48.04-17.75l.08-.08.08-.08s0-.01.01-.02l.03-.03.08-.08s.01-.01.02-.02l.03-.03.08-.08s0,0,.01-.01l.03-.03.08-.08s0-.01.01-.02l.03-.03.08-.08s0-.01.01-.02l.03-.03.08-.08s0-.01.01-.02l.03-.03.08-.08s0-.01.01-.02l.03-.03.08-.08s.01-.01.02-.02l.03-.03.08-.08s0,0,.01-.01l.03-.03.08-.08s0-.01.01-.02l.03-.03.08-.08s0-.01.01-.02l.03-.03.08-.08s0-.01.01-.02l.03-.03.08-.08s.01-.01.02-.02l.03-.03.08-.08s0-.01.01-.02l.03-.03.08-.08s0,0,.01-.01l.03-.03.08-.08s0-.01.01-.02l.03-.03.08-.08s0-.01.01-.02l.03-.03.08-.08s0-.01.01-.02l.03-.03.08-.08s.01-.01.02-.02l.03-.03.08-.08s0,0,.01-.01l.03-.03.08-.08s0-.01.01-.02l.03-.03.08-.08s0-.01.01-.02l.03-.03.08-.08s0-.01.01-.02l.03-.03.08-.08s.01-.01.02-.02l.03-.03.08-.08s0-.01.01-.02l.03-.03.08-.08s0,0,.01-.01l.03-.03.08-.08s0-.01.01-.02l.03-.03.08-.08s0-.01.01-.02l.03-.03.08-.08s0-.01.01-.02l.03-.03.08-.08s.01-.01.02-.02l.03-.03.08-.08s0,0,.01-.01l.03-.03.08-.08s0-.01.01-.02l.03-.03.08-.08s0-.01.01-.02l.03-.03.08-.08s0-.01.01-.02l.03-.03.08-.08s0-.01.01-.02l.03-.03.08-.08s.01-.01.02-.02l.03-.03.08-.08s0,0,.01-.01l.03-.03.08-.08s0-.01.01-.02l.03-.03.08-.08s0-.01.01-.02l.03-.03.08-.08s0-.01.01-.02l.03-.03.08-.08s.01-.01.02-.02l.03-.03.08-.08s0-.01.01-.02l.03-.03.08-.08s0,0,.01-.01l.03-.03.08-.08s0-.01.01-.02l.03-.03.08-.08s0-.01.01-.02l.03-.03.08-.08s0-.01.01-.02l.03-.03.08-.08s.01-.01.02-.02l.03-.03.08-.08s0,0,.01-.01l.03-.03.08-.08s0-.01.01-.02l.03-.03.08-.08s0-.01.01-.02l.03-.03.08-.08s0-.01.01-.02l.03-.03.08-.08s.01-.01.02-.02l.03-.03.08-.08s0-.01.01-.02l.03-.03.08-.08s0,0,.01-.01l.03-.03.06-.06c1.26,1.54,2.56,3.04,3.96,4.47,12.92,13.17,30.56,20.42,49.66,20.42s36.62-7.26,49.51-20.44c.01-.01.02-.03.03-.04.03-.03.06-.06.1-.09.01-.01.02-.03.04-.04.03-.03.06-.06.09-.09.01-.01.02-.02.03-.04.03-.03.06-.06.1-.09.01-.01.02-.03.03-.04.03-.03.06-.06.1-.09.01-.01.02-.03.03-.04.03-.03.06-.06.1-.09.01-.01.02-.03.03-.04.03-.03.06-.06.1-.09.01-.01.02-.03.03-.04.03-.03.06-.06.1-.09.01-.01.02-.03.04-.04.03-.03.06-.06.09-.09.01-.01.02-.02.03-.04.03-.03.06-.06.1-.09.01-.01.02-.03.03-.04.03-.03.06-.06.1-.09.01-.01.02-.03.03-.04.03-.03.06-.06.1-.09.01-.01.02-.03.03-.04.03-.03.06-.06.1-.09.01-.01.02-.03.04-.04.03-.03.06-.06.09-.09.01-.01.02-.03.03-.04.03-.03.06-.06.1-.09.01-.01.02-.02.03-.04.03-.03.06-.06.1-.09.01-.01.02-.03.03-.04.03-.03.06-.06.1-.09.01-.01.02-.03.03-.04.03-.03.06-.06.1-.09.01-.01.02-.03.03-.04.03-.03.06-.06.1-.09.01-.01.02-.03.04-.04.03-.03.06-.06.09-.09.01-.01.02-.02.03-.04.03-.03.06-.06.1-.09.01-.01.02-.03.03-.04.03-.03.06-.06.1-.09.01-.01.02-.03.03-.04.03-.03.06-.06.1-.09.01-.01.02-.03.03-.04.03-.03.06-.06.1-.09.01-.01.02-.03.04-.04.03-.03.06-.06.09-.09.01-.01.02-.03.03-.04.03-.03.06-.06.1-.09.01-.01.02-.02.03-.04.03-.03.06-.06.1-.09.01-.01.02-.03.03-.04.03-.03.06-.06.1-.09.01-.01.02-.03.03-.04.03-.03.06-.06.1-.09.01-.01.02-.03.03-.04.03-.03.06-.06.1-.09.01-.01.02-.03.04-.04.03-.03.06-.06.09-.09.01-.01.02-.02.03-.04.03-.03.06-.06.1-.09.01-.01.02-.03.03-.04.03-.03.06-.06.1-.09.01-.01.02-.03.03-.04.03-.03.06-.06.1-.09.01-.01.02-.03.03-.04.03-.03.06-.06.1-.09.01-.01.02-.03.03-.04.03-.03.06-.06.1-.09.01-.01.02-.03.04-.04.03-.03.06-.06.09-.09.01-.01.02-.02.03-.04.03-.03.06-.06.1-.09.01-.01.02-.03.03-.04.03-.03.06-.06.1-.09.01-.01.02-.03.03-.04.03-.03.06-.06.1-.09.01-.01.02-.03.03-.04.03-.03.06-.06.1-.09.01-.01.02-.03.04-.04.03-.03.06-.06.09-.09.01-.01.02-.03.03-.04.03-.03.06-.06.1-.09.01-.01.02-.02.03-.04.03-.03.06-.06.1-.09.01-.01.02-.03.03-.04.03-.03.06-.06.1-.09.01-.01.02-.03.03-.04.03-.03.06-.06.1-.09.01-.01.02-.03.03-.04.03-.03.06-.06.1-.09.01-.01.02-.03.04-.04.03-.03.06-.06.09-.09.01-.01.02-.02.03-.04.03-.03.06-.06.1-.09.01-.01.02-.03.03-.04.03-.03.06-.06.1-.09.01-.01.02-.03.03-.04.03-.03.06-.06.1-.09.01-.01.02-.03.03-.04.03-.03.06-.06.1-.09.01-.01.02-.03.04-.04.03-.03.06-.06.09-.09.01-.01.02-.03.03-.04.03-.03.06-.06.1-.09.01-.01.02-.02.03-.04.03-.03.06-.06.1-.09.01-.01.02-.03.03-.04.03-.03.06-.06.1-.09.01-.01.02-.03.03-.04.03-.03.06-.06.1-.09.01-.01.02-.03.03-.04.03-.03.06-.06.1-.09.01-.01.02-.03.04-.04.03-.03.06-.06.09-.09.01-.01.02-.02.03-.04.03-.03.06-.06.1-.09.01-.01.02-.03.03-.04.03-.03.06-.06.1-.09.01-.01.02-.03.03-.04.03-.03.06-.06.1-.09.01-.01.02-.03.03-.04.03-.03.06-.06.1-.09.01-.01.02-.03.03-.04.03-.03.06-.06.1-.09.01-.01.02-.03.04-.04.03-.03.06-.06.09-.09.01-.01.02-.02.03-.04.03-.03.06-.06.1-.09.01-.01.02-.03.03-.04.03-.03.06-.06.1-.09.01-.01.02-.03.03-.04.03-.03.06-.06.1-.09.01-.01.02-.03.03-.04.03-.03.06-.06.1-.09.01-.01.02-.03.04-.04.03-.03.06-.06.09-.09.01-.01.02-.03.03-.04.03-.03.06-.06.1-.09.01-.01.02-.02.03-.04.03-.03.06-.06.1-.09.01-.01.02-.03.03-.04.03-.03.06-.06.1-.09.01-.01.02-.03.03-.04.03-.03.06-.06.1-.09.01-.01.02-.03.03-.04.03-.03.06-.06.1-.09.01-.01.02-.03.04-.04.03-.03.06-.06.09-.09.01-.01.02-.02.03-.04.03-.03.06-.06.1-.09.01-.01.02-.03.03-.04.03-.03.06-.06.1-.09.01-.01.02-.03.03-.04.03-.03.06-.06.1-.09.01-.01.02-.03.03-.04.03-.03.06-.06.1-.09.01-.01.02-.03.04-.04.03-.03.06-.06.09-.09.01-.01.02-.03.03-.04.03-.03.06-.06.1-.09.01-.01.02-.02.03-.04.03-.03.06-.06.1-.09.01-.01.02-.03.03-.04.03-.03.06-.06.1-.09.01-.01.02-.03.03-.04.03-.03.06-.06.1-.09.01-.01.02-.03.03-.04.03-.03.06-.06.1-.09.01-.01.02-.03.04-.04.03-.03.06-.06.09-.09.01-.01.02-.02.03-.04.03-.03.06-.06.1-.09.01-.01.02-.03.03-.04.03-.03.06-.06.1-.09.01-.01.02-.03.03-.04.03-.03.06-.06.1-.09.01-.01.02-.03.03-.04.03-.03.06-.06.1-.09.01-.01.02-.03.03-.04.03-.03.06-.06.1-.09.01-.01.02-.03.04-.04.03-.03.06-.06.09-.09.01-.01.02-.02.03-.04.03-.03.06-.06.1-.09.01-.01.02-.03.03-.04.03-.03.06-.06.1-.09.01-.01.02-.03.03-.04.03-.03.06-.06.1-.09.01-.01.02-.03.03-.04.03-.03.06-.06.1-.09.01-.01.02-.03.04-.04.03-.03.06-.06.09-.09.01-.01.02-.03.03-.04.03-.03.06-.06.1-.09.01-.01.02-.02.03-.04.03-.03.06-.06.1-.09.01-.01.02-.03.03-.04.03-.03.06-.06.1-.09.01-.01.02-.03.03-.04.03-.03.06-.06.1-.09,1.87-1.91,3.6-3.93,5.21-6.02,3.21,4.89,6.9,9.48,11.08,13.68,16.73,16.82,39.44,26.09,63.96,26.09,22.07,0,42.16-7.66,58.34-22.17.29.34.58.69.88,1.02,12.19,13.51,29.24,20.95,48.02,20.95,9.41,0,18.12-1.81,25.84-5.29,3.28,1.88,7.1,2.94,11.21,2.94h14.31c3.36,0,6.52-.73,9.36-2.02v16.67c0,12.67,9.84,22.6,22.4,22.6h15.68c6.31,0,11.93-2.51,15.97-6.61.04-.04.09-.09.13-.13.04-.04.09-.09.13-.13.04-.04.09-.09.13-.13.04-.04.09-.09.13-.13.04-.04.09-.09.13-.13.04-.04.09-.09.13-.13.04-.04.09-.09.13-.13.04-.04.09-.09.13-.13.04-.04.09-.09.13-.13.04-.04.09-.09.13-.13.04-.04.09-.09.13-.13.04-.04.09-.09.13-.13.04-.04.09-.09.13-.13.04-.04.09-.09.13-.13.04-.04.09-.09.13-.13.04-.04.09-.09.13-.13.04-.04.09-.09.13-.13.04-.04.09-.09.13-.13.04-.04.09-.09.13-.13.04-.04.09-.09.13-.13.04-.04.09-.09.13-.13.04-.04.09-.09.13-.13.04-.04.09-.09.13-.13.04-.04.09-.09.13-.13.04-.04.09-.09.13-.13.04-.04.09-.09.13-.13.04-.04.09-.09.13-.13.04-.04.09-.09.13-.13.04-.04.09-.09.13-.13.04-.04.09-.09.13-.13.04-.04.09-.09.13-.13.04-.04.09-.09.13-.13.04-.04.09-.09.13-.13.04-.04.09-.09.13-.13.04-.04.09-.09.13-.13.04-.04.09-.09.13-.13.04-.04.09-.09.13-.13.04-.04.09-.09.13-.13.04-.04.09-.09.13-.13.04-.04.09-.09.13-.13.04-.04.09-.09.13-.13.04-.04.09-.09.13-.13.04-.04.09-.09.13-.13.04-.04.09-.09.13-.13.04-.04.09-.09.13-.13.04-.04.09-.09.13-.13.04-.04.09-.09.13-.13.04-.04.09-.09.13-.13.04-.04.09-.09.13-.13.04-.04.09-.09.13-.13.04-.04.09-.09.13-.13.04-.04.09-.09.13-.13.04-.04.09-.09.13-.13.04-.04.09-.09.13-.13.04-.04.09-.09.13-.13.04-.04.09-.09.13-.13.04-.04.09-.09.13-.13.04-.04.09-.09.13-.13.04-.04.09-.09.13-.13.04-.04.09-.09.13-.13.04-.04.09-.09.13-.13.04-.04.09-.09.13-.13.04-.04.09-.09.13-.13.04-.04.09-.09.13-.13.04-.04.09-.09.13-.13.04-.04.09-.09.13-.13.04-.04.09-.09.13-.13.04-.04.09-.09.13-.13.04-.04.09-.09.13-.13.04-.04.09-.09.13-.13.04-.04.09-.09.13-.13.04-.04.09-.09.13-.13.04-.04.09-.09.13-.13.04-.04.09-.09.13-.13.04-.04.09-.09.13-.13.04-.04.09-.09.13-.13.04-.04.09-.09.13-.13.04-.04.09-.09.13-.13.04-.04.09-.09.13-.13.04-.04.09-.09.13-.13.04-.04.09-.09.13-.13.04-.04.09-.09.13-.13.04-.04.09-.09.13-.13.04-.04.09-.09.13-.13.04-.04.09-.09.13-.13.04-.04.09-.09.13-.13.04-.04.09-.09.13-.13.04-.04.09-.09.13-.13.04-.04.09-.09.13-.13.04-.04.09-.09.13-.13.04-.04.09-.09.13-.13.04-.04.09-.09.13-.13.04-.04.09-.09.13-.13.04-.04.09-.09.13-.13.04-.04.09-.09.13-.13.04-.04.09-.09.13-.13.04-.04.09-.09.13-.13.04-.04.09-.09.13-.13.04-.04.09-.09.13-.13.04-.04.09-.09.13-.13,3.9-3.9,6.32-9.28,6.52-15.32.07,0,.14,0,.22,0,17.64,0,33.76-6.57,45.75-18.56.04-.04.09-.09.13-.13.04-.04.09-.09.13-.13.04-.04.09-.09.13-.13.04-.04.09-.09.13-.13.04-.04.09-.09.13-.13.04-.04.09-.09.13-.13.04-.04.09-.09.13-.13.04-.04.09-.09.13-.13.04-.04.09-.09.13-.13.04-.04.09-.09.13-.13.04-.04.09-.09.13-.13.04-.04.09-.09.13-.13.04-.04.09-.09.13-.13.04-.04.09-.09.13-.13.04-.04.09-.09.13-.13.04-.04.09-.09.13-.13.04-.04.09-.09.13-.13.04-.04.09-.09.13-.13.04-.04.09-.09.13-.13.04-.04.07-.07.11-.11,1.75,10.78,10.8,18.78,22.06,18.78h15.88c6.52,0,12.3-2.68,16.35-7.02.04-.04.09-.09.13-.13.04-.04.09-.08.13-.13.04-.04.09-.09.13-.13.04-.04.09-.08.13-.13.04-.04.09-.08.13-.13.04-.04.09-.08.13-.13.04-.04.09-.09.13-.13.04-.04.09-.08.13-.13.04-.04.09-.09.13-.13.04-.04.09-.08.13-.13.04-.04.09-.08.13-.13.04-.04.09-.09.13-.13.04-.04.09-.08.13-.13.04-.04.09-.08.13-.13.04-.04.09-.09.13-.13.04-.04.09-.08.13-.13.04-.04.09-.08.13-.13.04-.04.09-.09.13-.13.04-.04.09-.08.13-.13.04-.04.09-.09.13-.13.04-.04.09-.08.13-.13.04-.04.09-.08.13-.13.04-.04.09-.09.13-.13.04-.04.09-.08.13-.13.04-.04.09-.08.13-.13.04-.04.09-.09.13-.13.04-.04.09-.08.13-.13.04-.04.09-.08.13-.13.04-.04.09-.09.13-.13.04-.04.09-.08.13-.13.04-.04.09-.09.13-.13.04-.04.09-.08.13-.13.04-.04.09-.08.13-.13.04-.04.09-.08.13-.13.04-.04.09-.09.13-.13.04-.04.09-.08.13-.13.04-.04.09-.09.13-.13.04-.04.09-.08.13-.13.04-.04.09-.08.13-.13.04-.04.09-.09.13-.13.04-.04.09-.08.13-.13.04-.04.09-.08.13-.13.04-.04.09-.09.13-.13.04-.04.09-.08.13-.13.04-.04.09-.08.13-.13.04-.04.09-.09.13-.13.04-.04.09-.08.13-.13.04-.04.09-.09.13-.13.04-.04.09-.08.13-.13.04-.04.09-.08.13-.13.04-.04.09-.09.13-.13.04-.04.09-.08.13-.13.04-.04.09-.08.13-.13.04-.04.09-.09.13-.13.04-.04.09-.08.13-.13.04-.04.09-.08.13-.13.04-.04.09-.09.13-.13.04-.04.09-.08.13-.13.04-.04.09-.09.13-.13.04-.04.09-.08.13-.13.04-.04.09-.08.13-.13.04-.04.09-.08.13-.13.04-.04.09-.09.13-.13.04-.04.09-.08.13-.13.04-.04.09-.09.13-.13.02-.02.05-.05.07-.07,7.7,10.58,20.41,16.71,36.51,16.71,14.16,0,22.46-3.91,27.32-8.66.04-.04.09-.09.13-.13.04-.04.09-.09.13-.13.04-.04.09-.09.13-.13.04-.04.09-.09.13-.13.04-.04.09-.09.13-.13.04-.04.09-.09.13-.13.04-.04.09-.09.13-.13.04-.04.09-.09.13-.13.04-.04.09-.09.13-.13.04-.04.09-.09.13-.13.04-.04.09-.09.13-.13.04-.04.09-.09.13-.13.04-.04.09-.09.13-.13.04-.04.09-.09.13-.13.04-.04.09-.09.13-.13.04-.04.09-.09.13-.13.04-.04.09-.09.13-.13.04-.04.09-.09.13-.13.04-.04.09-.09.13-.13.04-.04.09-.09.13-.13.04-.04.09-.09.13-.13.04-.04.09-.09.13-.13.04-.04.09-.09.13-.13.04-.04.09-.09.13-.13.04-.04.09-.09.13-.13.04-.04.09-.09.13-.13.04-.04.09-.09.13-.13.04-.04.09-.09.13-.13.04-.04.09-.09.13-.13.04-.04.09-.09.13-.13.04-.04.09-.09.13-.13.04-.04.09-.09.13-.13.04-.04.09-.09.13-.13.04-.04.09-.09.13-.13.04-.04.09-.09.13-.13.04-.04.09-.09.13-.13.04-.04.09-.09.13-.13.04-.04.09-.09.13-.13.04-.04.09-.09.13-.13.04-.04.09-.09.13-.13.04-.04.09-.09.13-.13.04-.04.09-.09.13-.13.04-.04.09-.09.13-.13.04-.04.08-.08.11-.11,11.58,10.05,26.38,15.53,42.47,15.53,9.42,0,18.12-1.81,25.84-5.29,3.28,1.88,7.1,2.94,11.21,2.94h14.31c6.27,0,11.85-2.47,15.88-6.52,4.03,4.05,9.61,6.52,15.88,6.52h15.69c6.31,0,11.93-2.51,15.97-6.61.04-.04.09-.09.13-.13.04-.04.09-.09.13-.13.04-.04.09-.09.13-.13.04-.04.09-.09.13-.13.04-.04.09-.09.13-.13.04-.04.09-.09.13-.13.04-.04.09-.09.13-.13.04-.04.09-.09.13-.13.04-.04.09-.09.13-.13.04-.04.09-.09.13-.13.04-.04.09-.09.13-.13.04-.04.09-.09.13-.13.04-.04.09-.09.13-.13.04-.04.09-.09.13-.13.04-.04.09-.09.13-.13.04-.04.09-.09.13-.13.04-.04.09-.09.13-.13.04-.04.09-.09.13-.13.04-.04.09-.09.13-.13.04-.04.09-.09.13-.13.04-.04.09-.09.13-.13.04-.04.09-.09.13-.13.04-.04.09-.09.13-.13.04-.04.09-.09.13-.13.04-.04.09-.09.13-.13.04-.04.09-.09.13-.13.04-.04.09-.09.13-.13.04-.04.09-.09.13-.13.04-.04.09-.09.13-.13.04-.04.09-.09.13-.13.04-.04.09-.09.13-.13.04-.04.09-.09.13-.13.04-.04.09-.09.13-.13.04-.04.09-.09.13-.13.04-.04.09-.09.13-.13.04-.04.09-.09.13-.13.04-.04.09-.09.13-.13.04-.04.09-.09.13-.13.04-.04.09-.09.13-.13.04-.04.09-.09.13-.13.04-.04.09-.09.13-.13.04-.04.09-.09.13-.13.04-.04.09-.09.13-.13.04-.04.09-.09.13-.13.04-.04.09-.09.13-.13.04-.04.09-.09.13-.13.04-.04.09-.09.13-.13.04-.04.09-.09.13-.13.04-.04.09-.09.13-.13.04-.04.09-.09.13-.13.04-.04.09-.09.13-.13.04-.04.09-.09.13-.13.04-.04.09-.09.13-.13.04-.04.09-.09.13-.13.04-.04.09-.09.13-.13.04-.04.09-.09.13-.13.04-.04.09-.09.13-.13.04-.04.09-.09.13-.13.04-.04.09-.09.13-.13.04-.04.09-.09.13-.13.04-.04.09-.09.13-.13.04-.04.09-.09.13-.13.04-.04.09-.09.13-.13.04-.04.09-.09.13-.13.04-.04.09-.09.13-.13.04-.04.09-.09.13-.13.04-.04.09-.09.13-.13.04-.04.09-.09.13-.13.04-.04.09-.09.13-.13.04-.04.09-.09.13-.13.04-.04.09-.09.13-.13.04-.04.09-.09.13-.13.04-.04.09-.09.13-.13.04-.04.09-.09.13-.13.04-.04.09-.09.13-.13.04-.04.09-.09.13-.13.04-.04.09-.09.13-.13.04-.04.09-.09.13-.13.04-.04.09-.09.13-.13.04-.04.09-.09.13-.13.04-.04.09-.09.13-.13.04-.04.09-.09.13-.13.04-.04.09-.09.13-.13.04-.04.09-.09.13-.13.04-.04.09-.09.13-.13.04-.04.09-.09.13-.13.04-.04.09-.09.13-.13.04-.04.09-.09.13-.13.04-.04.09-.09.13-.13.04-.04.09-.09.13-.13.04-.04.09-.09.13-.13.04-.04.09-.09.13-.13.04-.04.09-.09.13-.13.04-.04.09-.09.13-.13.04-.04.09-.09.13-.13.04-.04.09-.09.13-.13.04-.04.09-.09.13-.13.04-.04.09-.09.13-.13.04-.04.09-.09.13-.13.04-.04.09-.09.13-.13,4.07-4.07,6.56-9.75,6.56-16.12v-134.3c0-12.67-9.84-22.6-22.4-22.6Z"/>
  <path class="cls-2" d="M204.49,268.97v9.61c0,36.27-23.92,64.89-63.13,64.89s-70.78-30.59-70.78-70.58,30.59-70.78,70.38-70.78c19.21,0,34.9,6.86,47.05,19.02,1.57,1.37,1.57,2.74.2,4.31l-10,10.78c-1.18,1.37-2.55,1.37-3.73.2-9.41-8.04-20.39-12.74-33.53-12.74-27.45,0-48.23,20.98-48.23,49.21s20.78,49.01,49.21,49.01c24.9,0,40.98-15.68,41.17-36.27h-40.39c-1.76,0-2.74-.98-2.74-2.74v-14.12c0-1.76.98-2.74,2.74-2.74h58.82c1.76,0,2.94,1.18,2.94,2.94ZM314.28,288.19c0,8.43-1.76,12.55-9.02,12.55h-64.7c2.55,15.29,13.92,25.49,32.94,25.49,9.41,0,17.06-2.35,24.7-7.45,1.18-.78,2.35-.59,3.14.59l5.49,7.45c1.18,1.57.78,2.74-.78,4.31-8.43,8.23-20.78,12.15-34.31,12.15-31.37,0-51.76-22.15-51.76-50.78s19.61-49.99,48.82-49.99,45.48,21.76,45.48,45.68ZM295.46,285.44c-1.18-15.68-11.57-25.1-26.66-25.1s-26.27,9.21-28.43,25.1h55.09ZM430.15,292.89c0,28.43-21.17,50.39-49.6,50.39s-49.8-21.96-49.8-50.39,21.17-50.39,49.8-50.39,49.6,21.96,49.6,50.39ZM409.76,292.89c0-18.43-12.74-30.78-29.21-30.78s-29.41,12.35-29.41,30.78,12.74,30.78,29.41,30.78,29.21-12.35,29.21-30.78ZM560.87,309.36c-1.18-1.18-2.55-1.37-4.12,0-9.02,7.84-19.8,12.55-33.13,12.55-27.45,0-48.23-20.59-48.23-49.01s20.78-49.21,48.23-49.21c13.33,0,24.11,4.71,33.13,12.55,1.57,1.18,2.94,1.18,4.12-.2l10-10.78c1.37-1.57,1.18-2.94-.2-4.31-12.16-11.57-27.84-18.82-47.25-18.82-39.8,0-70.19,30.78-70.19,70.78s30.39,70.58,70.19,70.58c19.41,0,35.09-7.25,47.25-19.02,1.37-1.37,1.76-2.74.2-4.12l-10-10.98ZM684.77,247.8v90.19c0,1.76-.98,2.94-2.74,2.94h-14.31c-1.77,0-2.75-1.18-2.75-2.94l-.39-12.74c-6.86,11.17-18.23,18.04-33.92,18.04-27.45,0-46.27-21.76-46.27-50.39s18.82-50.39,46.27-50.39c15.88,0,27.25,7.06,33.92,18.23l.39-12.94c0-1.76.98-2.94,2.75-2.94h14.31c1.76,0,2.74,1.18,2.74,2.94ZM663.79,293.09c0-18.62-11.96-31.17-29.02-31.17s-29.8,12.55-29.8,30.98,12.55,30.98,29.8,30.98,29.02-12.35,29.02-30.78ZM811.42,292.89c0,28.62-18.82,50.39-46.27,50.39-14.9,0-26.08-6.27-32.94-16.66v48.62c0,1.76-.98,2.94-2.74,2.94h-15.68c-1.77,0-2.75-1.18-2.75-2.94v-127.44c0-1.76.98-2.94,2.75-2.94h14.31c1.76,0,2.74,1.18,2.74,2.94l.39,12.94c6.67-11.18,18.04-18.23,33.92-18.23,27.45,0,46.27,21.96,46.27,50.39ZM790.84,292.89c0-18.43-12.55-30.98-29.8-30.98s-29.02,12.55-29.02,31.17,11.96,30.78,29.02,30.78,29.8-12.35,29.8-30.98ZM843.57,199.77c-7.06,0-12.35,5.49-12.35,12.16s5.29,12.35,12.35,12.35,12.15-5.49,12.15-12.35-5.29-12.16-12.15-12.16ZM851.42,244.86h-15.88c-1.76,0-2.74,1.18-2.74,2.94v90.19c0,1.76.98,2.94,2.74,2.94h15.88c1.76,0,2.74-1.18,2.74-2.94v-90.19c0-1.76-.98-2.94-2.74-2.94ZM924.55,244.86h-15.49v-22.55c0-1.76-.98-2.94-2.74-2.94h-15.88c-1.76,0-2.74,1.18-2.74,2.94v22.55h-12.35c-1.76,0-2.74,1.18-2.74,2.94v10.98c0,1.76.98,2.94,2.74,2.94h12.35v55.68c0,17.84,10.78,24.7,25.1,24.7,5.88,0,14.51-1.18,14.51-5.1v-10.59c0-1.96-1.18-2.94-3.53-2.55-2.16.2-4.51.2-6.08.2-5.49,0-8.63-2.74-8.63-9.22v-53.13h15.49c1.76,0,2.94-1.18,2.94-2.94v-10.98c0-1.76-1.18-2.94-2.94-2.94ZM1042.38,247.8v90.19c0,1.76-.98,2.94-2.74,2.94h-14.31c-1.76,0-2.74-1.18-2.74-2.94l-.39-12.74c-6.86,11.17-18.23,18.04-33.92,18.04-27.45,0-46.27-21.76-46.27-50.39s18.82-50.39,46.27-50.39c15.88,0,27.25,7.06,33.92,18.23l.39-12.94c0-1.76.98-2.94,2.74-2.94h14.31c1.76,0,2.74,1.18,2.74,2.94ZM1021.4,293.09c0-18.62-11.96-31.17-29.02-31.17s-29.8,12.55-29.8,30.98,12.55,30.98,29.8,30.98,29.02-12.35,29.02-30.78ZM1087.08,200.75h-15.69c-1.76,0-2.74,1.18-2.74,2.94v134.3c0,1.76.98,2.94,2.74,2.94h15.69c1.76,0,2.74-1.18,2.74-2.94v-134.3c0-1.76-.98-2.94-2.74-2.94Z"/>
</svg>