<?xml version="1.0" encoding="UTF-8"?>
<svg id="Logotype_-_Monochrome_-_Dark" data-name="Logotype - Monochrome - Dark" xmlns="http://www.w3.org/2000/svg" viewBox="0 0 1157.47 576">
  <defs>
    <style>
      .cls-1 {
        fill: #fff;
      }

      .cls-2 {
        fill: #e62c3f;
      }
    </style>
  </defs>
  <g id="Logo_-_Monochrome_-_Dark" data-name="Logo - Monochrome - Dark">
    <g>
      <path class="cls-2" d="M97.73,307.45c.18.08.37.15.55.23-.18-.08-.37-.15-.55-.23Z"/>
      <path class="cls-2" d="M116.36,312.6c.18.03.36.05.54.08-.18-.03-.36-.05-.54-.08Z"/>
      <path class="cls-2" d="M111.45,311.68c.24.05.48.1.73.15-.24-.05-.49-.1-.73-.15Z"/>
      <path class="cls-2" d="M113.65,312.12c.2.04.41.08.61.12-.21-.04-.41-.08-.61-.12Z"/>
      <path class="cls-2" d="M107.13,310.64c.15.04.29.08.43.12-.15-.04-.29-.08-.43-.12Z"/>
      <path class="cls-2" d="M101.48,308.9c.08.03.16.06.25.09-.08-.03-.17-.06-.25-.09Z"/>
      <path class="cls-2" d="M99.37,308.11c.18.07.36.14.54.21-.18-.07-.36-.14-.54-.21Z"/>
      <path class="cls-2" d="M103.24,309.49c.2.07.41.13.61.19-.2-.06-.41-.13-.61-.19Z"/>
      <path class="cls-2" d="M105.06,310.05c.22.06.43.13.65.19-.22-.06-.43-.13-.65-.19Z"/>
      <path class="cls-2" d="M109.44,311.23c.2.05.41.09.62.14-.21-.05-.41-.09-.62-.14Z"/>
      <path class="cls-2" d="M135.19,314.13c.26,0,.51,0,.77,0-.26,0-.52,0-.77,0Z"/>
      <path class="cls-2" d="M132.1,314.06c.14,0,.27.01.41.02-.14,0-.28-.01-.41-.02Z"/>
      <path class="cls-2" d="M118.58,312.93c.26.04.52.07.78.1-.26-.03-.52-.07-.78-.1Z"/>
      <path class="cls-2" d="M137.21,311.65c5.88,0,20.22-2.16,29.93-5.89,3.5-5.83,6.19-12.19,7.93-18.94,1.48-5.74,2.27-11.77,2.27-17.98,0-4.35-.39-8.61-1.13-12.75-.54-3.03-3.19-5.23-6.27-5.23h-42.13v.06c12.72,10.25,13.79,20.41,12.34,27.26,0,0,0,0,0,.01-.7,3.34-2.01,5.89-2.85,7.3,0,.01-.02.03-.03.05-.22.43-.45.85-.69,1.27-3.37,5.81-8.31,10.6-14.25,13.77-5.04,2.69-10.79,4.21-16.9,4.21-3.97,0-7.78-.65-11.35-1.83,10.86,5.77,25.33,8.69,43.14,8.69Z"/>
      <path class="cls-2" d="M129.07,313.93c.28.01.55.03.83.04-.28-.01-.55-.03-.83-.04Z"/>
      <path class="cls-2" d="M120.96,313.24c.24.03.49.06.74.09-.25-.03-.49-.06-.74-.09Z"/>
      <path class="cls-2" d="M126.48,313.77c.26.02.53.04.8.05-.27-.02-.53-.03-.8-.05Z"/>
      <path class="cls-2" d="M124.04,313.57c.08,0,.16.01.23.02-.08,0-.16-.01-.23-.02Z"/>
      <path class="cls-2" d="M158.98,312.89c-.4.04-.78.08-1.17.12.39-.04.78-.08,1.17-.12Z"/>
      <path class="cls-2" d="M87.39,301.79c.12.08.24.16.35.24-.12-.08-.24-.16-.35-.24Z"/>
      <path class="cls-2" d="M145.45,313.95c-.47.02-.93.04-1.39.06.46-.02.92-.04,1.39-.06Z"/>
      <path class="cls-2" d="M142.29,314.07c-.46.01-.92.02-1.37.03.45,0,.91-.02,1.37-.03Z"/>
      <path class="cls-2" d="M137.88,314.14c.44,0,.89,0,1.34-.01-.45,0-.89,0-1.34.01Z"/>
      <path class="cls-2" d="M162.6,312.47h0s-.04,0-.05,0c.02,0,.04,0,.05,0h0Z"/>
      <path class="cls-2" d="M96.2,306.78c.12.05.24.11.36.16-.12-.05-.24-.11-.36-.16Z"/>
      <path class="cls-2" d="M152.03,313.54c-.47.04-.93.07-1.4.1.47-.03.93-.06,1.4-.1Z"/>
      <path class="cls-2" d="M148.7,313.77c-.47.03-.94.05-1.41.08.47-.03.93-.05,1.41-.08Z"/>
      <path class="cls-2" d="M155.46,313.24c-.46.04-.9.08-1.35.12.45-.04.9-.08,1.35-.12Z"/>
      <path class="cls-2" d="M92.86,305.13c.16.08.32.17.48.25-.16-.08-.32-.17-.48-.25Z"/>
      <path class="cls-2" d="M91.5,304.39c.12.07.25.14.38.21-.13-.07-.25-.14-.38-.21Z"/>
      <path class="cls-2" d="M94.35,305.9c.14.07.28.14.42.21-.14-.07-.28-.14-.42-.21Z"/>
      <path class="cls-2" d="M89.97,303.49c.08.05.17.1.25.16-.09-.05-.17-.1-.25-.16Z"/>
      <path class="cls-2" d="M71.96,282.35c-.32-.84-.6-1.66-.84-2.46.24.8.52,1.62.84,2.46Z"/>
      <path class="cls-2" d="M78.03,293.05c-1.44-1.82-2.64-3.65-3.64-5.45,1,1.8,2.2,3.63,3.64,5.45Z"/>
      <path class="cls-2" d="M86.26,300.99c-3.37-2.51-6.07-5.21-8.23-7.93,2.16,2.73,4.86,5.43,8.23,7.93,0,0,0,0,0,0,0,0,0,0,0,0Z"/>
      <path class="cls-2" d="M88.58,302.61c.13.09.26.17.39.26-.13-.09-.26-.17-.39-.26Z"/>
    </g>
    <g>
      <path class="cls-2" d="M137.1,261.19c.08.14.17.28.25.42-.08-.14-.16-.28-.25-.42Z"/>
      <path class="cls-2" d="M139.23,265.63c.05.14.1.27.15.41-.05-.14-.1-.27-.15-.41Z"/>
      <path class="cls-2" d="M139.53,266.49c.04.14.09.27.13.41-.04-.13-.08-.27-.13-.41Z"/>
      <path class="cls-2" d="M138.51,263.88c.06.14.12.28.19.42-.06-.14-.12-.28-.19-.42Z"/>
      <path class="cls-2" d="M137.61,262.1c.08.14.15.28.23.42-.07-.14-.15-.28-.23-.42Z"/>
      <path class="cls-2" d="M138.89,264.76c.06.14.11.28.17.41-.05-.14-.11-.28-.17-.41Z"/>
      <path class="cls-2" d="M138.08,262.99c.07.14.14.28.21.42-.07-.14-.13-.28-.21-.42Z"/>
      <path class="cls-2" d="M139.79,267.34c.04.13.08.27.11.4-.04-.13-.07-.27-.11-.4Z"/>
      <path class="cls-2" d="M140.35,269.83c.02.13.04.26.06.38-.02-.13-.04-.25-.06-.38Z"/>
      <path class="cls-2" d="M140.62,272.21c0,.12.01.24.02.36,0-.12-.01-.24-.02-.36Z"/>
      <path class="cls-2" d="M132.39,255.1c-.12-.13-.24-.26-.36-.38.13.13.24.26.36.38Z"/>
      <path class="cls-2" d="M140.65,273.32c0-.12,0-.23,0-.35,0,.12,0,.23,0,.35Z"/>
      <path class="cls-2" d="M140.01,268.18c.03.13.06.26.09.4-.03-.13-.06-.26-.09-.4Z"/>
      <path class="cls-2" d="M140.56,271.43c.01.12.02.25.03.37,0-.12-.02-.25-.03-.37Z"/>
      <path class="cls-2" d="M140.2,269.01c.03.13.05.26.08.39-.02-.13-.05-.26-.08-.39Z"/>
      <path class="cls-2" d="M140.47,270.64c.02.13.03.25.05.37-.01-.12-.03-.25-.05-.37Z"/>
      <path class="cls-2" d="M131.08,253.78c.12.11.22.22.34.33-.11-.11-.22-.22-.34-.33Z"/>
      <path class="cls-2" d="M140.62,274.79c0-.11,0-.22.01-.32,0,.11,0,.22-.01.32Z"/>
      <path class="cls-2" d="M140.65,274.07c0-.11,0-.22,0-.34,0,.11,0,.23,0,.34Z"/>
      <path class="cls-2" d="M140.56,275.5c0-.1.02-.21.02-.31,0,.1-.01.21-.02.31Z"/>
      <path class="cls-2" d="M140.29,277.53c.01-.07.02-.15.04-.22-.01.07-.02.15-.04.22Z"/>
      <path class="cls-2" d="M140.49,276.2c.01-.1.02-.19.03-.29-.01.1-.02.19-.03.29Z"/>
      <path class="cls-2" d="M134.41,285.57c.2-.35.43-.76.64-1.17l.07-.13.05-.07s0,0,0-.01c.82-1.38,1.93-3.62,2.54-6.52l.06-.29c.97-4.94.32-10.86-6.41-18.09-3.4-3.66-7.6-6.47-12.18-8.45h-16.37c-3.52,0-6.37,2.85-6.37,6.37v23.22c0,3.52,2.85,6.37,6.37,6.37h30.85c.26-.41.51-.82.75-1.24Z"/>
      <path class="cls-2" d="M140.4,276.87c.01-.09.02-.17.04-.26-.01.09-.02.17-.04.26Z"/>
      <path class="cls-2" d="M136.53,260.28c.09.14.18.28.27.43-.09-.14-.18-.28-.27-.43Z"/>
      <path class="cls-2" d="M135.25,258.45c.11.14.21.28.31.42-.1-.14-.2-.28-.31-.42Z"/>
      <path class="cls-2" d="M135.91,259.37c.1.14.19.28.29.43-.1-.14-.19-.28-.29-.43Z"/>
      <path class="cls-2" d="M127.68,250.85c.45.33.89.68,1.32,1.04-.38-.33-.77-.65-1.18-.98v-.06h-.14Z"/>
      <path class="cls-2" d="M134.53,257.52c.11.14.22.28.33.42-.11-.14-.22-.28-.33-.42Z"/>
      <path class="cls-2" d="M130.07,252.83c.05.05.1.09.15.14-.05-.05-.1-.09-.15-.14Z"/>
      <path class="cls-2" d="M133.75,256.59c.12.14.23.28.35.41-.12-.14-.23-.28-.35-.41Z"/>
      <path class="cls-2" d="M132.92,255.66c.12.13.24.27.36.4-.12-.13-.24-.27-.36-.4Z"/>
    </g>
    <g id="G-1.1">
      <path class="cls-2" d="M162.6,312.47h0c-40.47,4.99-63.37-1.84-76.33-11.48-17.99-13.37-16.79-32.15-16.79-32.15,0-19.86,16.1-35.96,35.96-35.96,7.96,0,15.32,2.59,21.27,6.97,2.55,1.88,6.08,1.64,8.32-.59l16.54-16.54c2.66-2.66,2.45-7.03-.45-9.42-12.42-10.23-28.34-16.37-45.68-16.37-39.72,0-71.92,32.2-71.92,71.92,0,16.16,5.33,31.08,14.33,43.09h-.05s46.14,59.07,46.14,59.07c5.84,7.47,17.15,7.47,22.99,0l45.68-58.5v-.02Z"/>
    </g>
  </g>
  <path class="cls-1" d="M349.26,282.48v8.49c0,32.07-21.15,57.38-55.82,57.38s-62.58-27.04-62.58-62.4,27.04-62.58,62.23-62.58c16.99,0,30.85,6.07,41.6,16.81,1.39,1.21,1.39,2.43.17,3.81l-8.84,9.53c-1.04,1.21-2.25,1.21-3.29.17-8.32-7.11-18.03-11.27-29.64-11.27-24.27,0-42.64,18.55-42.64,43.51s18.37,43.33,43.51,43.33c22.01,0,36.23-13.87,36.4-32.07h-35.71c-1.56,0-2.43-.87-2.43-2.43v-12.48c0-1.56.87-2.43,2.43-2.43h52c1.56,0,2.6,1.04,2.6,2.6ZM446.33,299.47c0,7.45-1.56,11.09-7.97,11.09h-57.2c2.25,13.52,12.31,22.53,29.12,22.53,8.32,0,15.08-2.08,21.84-6.59,1.04-.69,2.08-.52,2.77.52l4.85,6.59c1.04,1.39.69,2.43-.69,3.81-7.45,7.28-18.37,10.75-30.33,10.75-27.73,0-45.76-19.59-45.76-44.89s17.33-44.2,43.16-44.2,40.21,19.24,40.21,40.39ZM429.69,297.05c-1.04-13.87-10.23-22.19-23.57-22.19s-23.23,8.15-25.13,22.19h48.71ZM548.77,303.63c0,25.13-18.72,44.55-43.85,44.55s-44.03-19.41-44.03-44.55,18.72-44.55,44.03-44.55,43.85,19.41,43.85,44.55ZM530.74,303.63c0-16.29-11.27-27.21-25.83-27.21s-26,10.92-26,27.21,11.27,27.21,26,27.21,25.83-10.92,25.83-27.21ZM664.34,318.19c-1.04-1.04-2.25-1.21-3.64,0-7.97,6.93-17.51,11.09-29.29,11.09-24.27,0-42.64-18.2-42.64-43.33s18.37-43.51,42.64-43.51c11.79,0,21.32,4.16,29.29,11.09,1.39,1.04,2.6,1.04,3.64-.17l8.84-9.53c1.21-1.39,1.04-2.6-.17-3.81-10.75-10.23-24.61-16.64-41.77-16.64-35.19,0-62.06,27.21-62.06,62.58s26.87,62.4,62.06,62.4c17.16,0,31.03-6.41,41.77-16.81,1.21-1.21,1.56-2.43.17-3.64l-8.84-9.71ZM773.89,263.76v79.74c0,1.56-.87,2.6-2.43,2.6h-12.65c-1.56,0-2.43-1.04-2.43-2.6l-.35-11.27c-6.07,9.88-16.12,15.95-29.99,15.95-24.27,0-40.91-19.24-40.91-44.55s16.64-44.55,40.91-44.55c14.04,0,24.09,6.24,29.99,16.12l.35-11.44c0-1.56.87-2.6,2.43-2.6h12.65c1.56,0,2.43,1.04,2.43,2.6ZM755.34,303.81c0-16.47-10.57-27.56-25.66-27.56s-26.35,11.09-26.35,27.39,11.09,27.39,26.35,27.39,25.66-10.92,25.66-27.21ZM885.86,303.63c0,25.31-16.64,44.55-40.91,44.55-13.17,0-23.05-5.55-29.12-14.73v42.99c0,1.56-.87,2.6-2.43,2.6h-13.87c-1.56,0-2.43-1.04-2.43-2.6v-112.67c0-1.56.87-2.6,2.43-2.6h12.65c1.56,0,2.43,1.04,2.43,2.6l.35,11.44c5.89-9.88,15.95-16.12,29.99-16.12,24.27,0,40.91,19.41,40.91,44.55ZM867.66,303.63c0-16.29-11.09-27.39-26.35-27.39s-25.65,11.09-25.65,27.56,10.57,27.21,25.65,27.21,26.35-10.92,26.35-27.39ZM914.29,221.3c-6.24,0-10.92,4.85-10.92,10.75s4.68,10.92,10.92,10.92,10.75-4.85,10.75-10.92-4.68-10.75-10.75-10.75ZM921.22,261.16h-14.04c-1.56,0-2.43,1.04-2.43,2.6v79.74c0,1.56.87,2.6,2.43,2.6h14.04c1.56,0,2.43-1.04,2.43-2.6v-79.74c0-1.56-.87-2.6-2.43-2.6ZM985.88,261.16h-13.69v-19.93c0-1.56-.87-2.6-2.43-2.6h-14.04c-1.56,0-2.43,1.04-2.43,2.6v19.93h-10.92c-1.56,0-2.43,1.04-2.43,2.6v9.71c0,1.56.87,2.6,2.43,2.6h10.92v49.23c0,15.77,9.53,21.84,22.19,21.84,5.2,0,12.83-1.04,12.83-4.51v-9.36c0-1.73-1.04-2.6-3.12-2.25-1.91.17-3.99.17-5.37.17-4.85,0-7.63-2.43-7.63-8.15v-46.97h13.69c1.56,0,2.6-1.04,2.6-2.6v-9.71c0-1.56-1.04-2.6-2.6-2.6ZM1090.06,263.76v79.74c0,1.56-.87,2.6-2.43,2.6h-12.65c-1.56,0-2.43-1.04-2.43-2.6l-.35-11.27c-6.07,9.88-16.12,15.95-29.99,15.95-24.27,0-40.91-19.24-40.91-44.55s16.64-44.55,40.91-44.55c14.04,0,24.09,6.24,29.99,16.12l.35-11.44c0-1.56.87-2.6,2.43-2.6h12.65c1.56,0,2.43,1.04,2.43,2.6ZM1071.51,303.81c0-16.47-10.57-27.56-25.65-27.56s-26.35,11.09-26.35,27.39,11.09,27.39,26.35,27.39,25.65-10.92,25.65-27.21ZM1129.58,222.16h-13.87c-1.56,0-2.43,1.04-2.43,2.6v118.74c0,1.56.87,2.6,2.43,2.6h13.87c1.56,0,2.43-1.04,2.43-2.6v-118.74c0-1.56-.87-2.6-2.43-2.6Z"/>
</svg>