<?xml version="1.0" encoding="UTF-8"?>
<svg id="Logo_-_Monochrome_-_Color" data-name="Logo - Monochrome - Color" xmlns="http://www.w3.org/2000/svg" viewBox="0 0 576 576">
  <defs>
    <style>
      .cls-1 {
        fill: #fff;
      }
    </style>
  </defs>
  <g>
    <path class="cls-1" d="M272.58,329.32c.36.15.73.31,1.1.46-.37-.15-.74-.3-1.1-.46Z"/>
    <path class="cls-1" d="M309.89,339.64c.36.06.72.11,1.08.17-.36-.06-.72-.11-1.08-.17Z"/>
    <path class="cls-1" d="M300.06,337.79c.48.1.97.21,1.46.31-.49-.1-.97-.2-1.46-.31Z"/>
    <path class="cls-1" d="M304.46,338.68c.41.08.81.16,1.23.23-.41-.08-.82-.16-1.23-.23Z"/>
    <path class="cls-1" d="M291.41,335.72c.29.08.57.16.87.24-.29-.08-.58-.16-.87-.24Z"/>
    <path class="cls-1" d="M280.09,332.22c.16.06.33.11.49.17-.16-.06-.33-.11-.49-.17Z"/>
    <path class="cls-1" d="M275.86,330.64c.36.14.72.28,1.09.42-.37-.14-.73-.28-1.09-.42Z"/>
    <path class="cls-1" d="M283.62,333.41c.4.13.82.26,1.23.39-.41-.13-.82-.26-1.23-.39Z"/>
    <path class="cls-1" d="M287.25,334.54c.43.13.86.26,1.3.38-.44-.13-.87-.25-1.3-.38Z"/>
    <path class="cls-1" d="M296.04,336.89c.41.1.82.19,1.24.28-.41-.1-.83-.19-1.24-.28Z"/>
    <path class="cls-1" d="M347.59,342.7c.51,0,1.03,0,1.55.01-.51,0-1.04,0-1.55-.01Z"/>
    <path class="cls-1" d="M341.4,342.56c.28,0,.55.02.83.03-.28,0-.55-.02-.83-.03Z"/>
    <path class="cls-1" d="M314.34,340.31c.51.07,1.03.14,1.55.21-.52-.07-1.04-.14-1.55-.21Z"/>
    <path class="cls-1" d="M351.64,337.73c11.77,0,40.48-4.32,59.94-11.8,7-11.67,12.4-24.41,15.89-37.93,2.96-11.5,4.54-23.57,4.54-36,0-8.71-.78-17.24-2.26-25.52-1.09-6.07-6.39-10.48-12.55-10.48h-84.36v.13c25.46,20.53,27.61,40.86,24.71,54.58,0,.01,0,.02,0,.03-1.41,6.69-4.02,11.8-5.71,14.62-.02.03-.04.07-.06.1-.44.86-.91,1.7-1.39,2.54-6.74,11.64-16.64,21.23-28.54,27.57-10.09,5.38-21.61,8.43-33.83,8.43-7.95,0-15.59-1.29-22.73-3.67,21.75,11.55,50.71,17.4,86.37,17.4Z"/>
    <path class="cls-1" d="M335.33,342.3c.55.03,1.1.06,1.66.09-.56-.03-1.11-.06-1.66-.09Z"/>
    <path class="cls-1" d="M319.1,340.92c.49.06.98.12,1.47.17-.49-.06-.98-.12-1.47-.17Z"/>
    <path class="cls-1" d="M330.16,341.97c.53.04,1.06.07,1.6.11-.53-.04-1.07-.07-1.6-.11Z"/>
    <path class="cls-1" d="M325.26,341.57c.15.01.31.03.47.04-.15-.01-.31-.03-.47-.04Z"/>
    <path class="cls-1" d="M395.22,340.21c-.79.09-1.56.16-2.35.24.78-.08,1.56-.15,2.35-.24Z"/>
    <path class="cls-1" d="M251.87,318c.23.16.47.33.71.49-.24-.16-.47-.32-.71-.49Z"/>
    <path class="cls-1" d="M368.13,342.33c-.94.04-1.86.08-2.79.12.93-.04,1.85-.07,2.79-.12Z"/>
    <path class="cls-1" d="M361.81,342.57c-.92.03-1.83.05-2.74.07.91-.02,1.82-.04,2.74-.07Z"/>
    <path class="cls-1" d="M352.98,342.72c.88,0,1.78-.01,2.67-.02-.9.01-1.79.02-2.67.02Z"/>
    <path class="cls-1" d="M402.46,339.37h-.01s-.07,0-.11.01c.04,0,.07,0,.11-.01h.01Z"/>
    <path class="cls-1" d="M269.52,327.98c.24.11.49.21.73.32-.24-.11-.49-.21-.73-.32Z"/>
    <path class="cls-1" d="M381.31,341.51c-.94.07-1.87.14-2.8.2.93-.07,1.86-.13,2.8-.2Z"/>
    <path class="cls-1" d="M374.63,341.98c-.95.06-1.88.11-2.82.16.94-.05,1.87-.1,2.82-.16Z"/>
    <path class="cls-1" d="M388.17,340.92c-.91.09-1.8.16-2.71.24.9-.08,1.79-.15,2.71-.24Z"/>
    <path class="cls-1" d="M262.82,324.69c.32.17.63.34.95.5-.32-.17-.64-.33-.95-.5Z"/>
    <path class="cls-1" d="M260.11,323.2c.25.14.5.28.76.42-.25-.14-.51-.28-.76-.42Z"/>
    <path class="cls-1" d="M265.8,326.22c.28.14.55.28.83.41-.28-.14-.55-.28-.83-.41Z"/>
    <path class="cls-1" d="M257.05,321.39c.17.1.33.21.5.31-.17-.1-.33-.21-.5-.31Z"/>
    <path class="cls-1" d="M220.99,279.07c-.64-1.69-1.2-3.33-1.68-4.93.49,1.59,1.05,3.24,1.68,4.93Z"/>
    <path class="cls-1" d="M233.14,300.49c-2.88-3.64-5.28-7.31-7.28-10.91,2,3.6,4.4,7.27,7.28,10.91Z"/>
    <path class="cls-1" d="M249.62,316.38c-6.75-5.02-12.16-10.42-16.48-15.89,4.32,5.46,9.72,10.86,16.48,15.89,0,0,0,0,0,0,0,0,0,0,0,0Z"/>
    <path class="cls-1" d="M254.27,319.62c.26.17.52.34.79.51-.26-.17-.53-.34-.79-.51Z"/>
  </g>
  <g>
    <path class="cls-1" d="M351.4,236.71c.17.28.33.57.49.85-.16-.28-.32-.57-.49-.85Z"/>
    <path class="cls-1" d="M355.67,245.59c.1.27.2.55.29.82-.1-.27-.19-.55-.29-.82Z"/>
    <path class="cls-1" d="M356.27,247.31c.09.27.17.54.26.81-.08-.27-.17-.54-.26-.81Z"/>
    <path class="cls-1" d="M354.23,242.09c.13.28.25.56.37.84-.12-.28-.24-.56-.37-.84Z"/>
    <path class="cls-1" d="M352.44,238.52c.16.28.3.56.45.85-.15-.28-.3-.56-.45-.85Z"/>
    <path class="cls-1" d="M354.99,243.85c.11.28.22.55.33.83-.11-.28-.22-.55-.33-.83Z"/>
    <path class="cls-1" d="M353.38,240.31c.14.28.28.56.41.84-.13-.28-.27-.56-.41-.84Z"/>
    <path class="cls-1" d="M356.79,249.02c.08.27.15.54.22.8-.07-.27-.15-.54-.22-.8Z"/>
    <path class="cls-1" d="M357.91,254c.04.26.09.51.12.76-.04-.25-.08-.51-.12-.76Z"/>
    <path class="cls-1" d="M358.45,258.76c.01.24.03.48.04.72,0-.24-.03-.48-.04-.72Z"/>
    <path class="cls-1" d="M341.98,224.51c-.24-.26-.48-.51-.73-.77.25.26.49.51.73.77Z"/>
    <path class="cls-1" d="M358.53,260.99c0-.23,0-.46-.01-.7,0,.23.01.47.01.7Z"/>
    <path class="cls-1" d="M357.24,250.7c.06.26.13.53.19.79-.06-.26-.12-.53-.19-.79Z"/>
    <path class="cls-1" d="M358.33,257.2c.02.25.05.49.07.74-.02-.24-.04-.49-.07-.74Z"/>
    <path class="cls-1" d="M357.61,252.36c.05.26.11.52.15.78-.05-.26-.1-.52-.15-.78Z"/>
    <path class="cls-1" d="M358.15,255.61c.03.25.07.5.09.75-.03-.25-.06-.5-.09-.75Z"/>
    <path class="cls-1" d="M339.35,221.86c.23.22.45.44.67.66-.23-.22-.44-.44-.67-.66Z"/>
    <path class="cls-1" d="M358.45,263.93c.01-.21.02-.43.03-.65,0,.22-.02.43-.03.65Z"/>
    <path class="cls-1" d="M358.51,262.48c0-.22,0-.45,0-.67,0,.23,0,.45,0,.67Z"/>
    <path class="cls-1" d="M358.35,265.36c.02-.21.03-.42.05-.62-.02.21-.03.42-.05.62Z"/>
    <path class="cls-1" d="M357.79,269.43c.03-.14.05-.29.07-.44-.03.15-.05.3-.07.44Z"/>
    <path class="cls-1" d="M358.2,266.75c.02-.19.04-.39.06-.58-.02.19-.04.39-.06.58Z"/>
    <path class="cls-1" d="M346.03,285.52c.4-.7.86-1.52,1.28-2.34l.13-.26.09-.14s.01-.02.02-.03c1.65-2.76,3.87-7.26,5.09-13.05l.12-.58c1.95-9.88.63-21.74-12.84-36.22-6.81-7.32-15.21-12.96-24.39-16.91h-32.78c-7.04,0-12.75,5.71-12.75,12.75v46.5c0,7.04,5.71,12.75,12.75,12.75h61.77c.52-.82,1.03-1.64,1.51-2.48Z"/>
    <path class="cls-1" d="M358.01,268.1c.03-.17.05-.35.07-.52-.02.17-.05.35-.07.52Z"/>
    <path class="cls-1" d="M350.27,234.89c.18.28.36.57.54.85-.18-.28-.35-.57-.54-.85Z"/>
    <path class="cls-1" d="M347.7,231.21c.21.28.41.57.62.85-.21-.28-.41-.57-.62-.85Z"/>
    <path class="cls-1" d="M349.04,233.05c.2.29.39.57.58.85-.19-.28-.38-.57-.58-.85Z"/>
    <path class="cls-1" d="M332.54,216c.9.67,1.79,1.36,2.64,2.09-.76-.65-1.55-1.3-2.36-1.96v-.13h-.29Z"/>
    <path class="cls-1" d="M346.26,229.35c.23.28.44.56.66.84-.22-.28-.43-.56-.66-.84Z"/>
    <path class="cls-1" d="M337.33,219.97c.1.09.2.19.3.28-.1-.09-.2-.19-.3-.28Z"/>
    <path class="cls-1" d="M344.7,227.49c.24.28.46.55.7.83-.23-.28-.46-.55-.7-.83Z"/>
    <path class="cls-1" d="M343.04,225.62c.25.27.48.54.72.81-.24-.27-.48-.54-.72-.81Z"/>
  </g>
  <g id="G-1.1">
    <path class="cls-1" d="M402.46,339.37h-.01c-81.03,10-126.89-3.69-152.83-22.99-36.02-26.78-33.62-64.38-33.62-64.38,0-39.76,32.24-72,72-72,15.94,0,30.66,5.18,42.59,13.95,5.11,3.75,12.17,3.29,16.65-1.19l33.12-33.12c5.32-5.32,4.91-14.08-.89-18.86-24.87-20.48-56.74-32.78-91.47-32.78-79.53,0-144,64.47-144,144,0,32.36,10.68,62.23,28.7,86.27l-.11.03,92.39,118.24c11.69,14.96,34.33,14.96,46.02,0l91.47-117.13-.02-.04Z"/>
  </g>
</svg>